<svg xmlns="http://www.w3.org/2000/svg" xmlns:xlink="http://www.w3.org/1999/xlink" width="729" height="358" viewBox="0 0 729 358" fill="none"><path fill="#FFFFFF" d="M0 358L729 358L729 0L0 0L0 358Z"/><g mask="url(#mask-Kyn6kutNRMhA78rGKWvmG)"><path fill="#005DA2" d="M202.804 135.863C204.934 135.855 206.674 137.582 206.684 139.719C206.684 141.856 204.954 143.591 202.814 143.594C200.684 143.597 198.944 141.865 198.944 139.728C198.944 137.599 200.674 135.871 202.804 135.863ZM167.384 157.84L153.125 157.84C152.064 157.84 151.204 158.702 151.204 159.765C151.204 160.829 152.064 161.691 153.125 161.691L167.384 161.691C172.124 161.68 176.024 157.944 176.234 153.207L184.474 153.207C185.864 156.844 190.374 158.099 193.444 155.702C196.514 153.306 196.394 148.624 193.194 146.392C190.004 144.161 185.564 145.651 184.374 149.356L176.244 149.356L176.244 146.663C176.244 143.897 178.494 141.654 181.254 141.654L195.384 141.654C196.734 146.857 202.854 149.125 207.264 146.055C211.674 142.985 211.674 136.458 207.264 133.387C202.854 130.317 196.734 132.585 195.384 137.788L181.254 137.788C176.364 137.796 172.394 141.767 172.394 146.663L172.394 149.385L153.084 149.385C152.024 149.385 151.154 150.247 151.154 151.311C151.154 152.374 152.024 153.236 153.084 153.236L172.324 153.236C172.124 155.843 169.954 157.861 167.344 157.869M153.084 170.971L177.524 170.971C178.894 174.613 183.404 175.885 186.484 173.5C189.564 171.115 189.454 166.433 186.274 164.189C183.094 161.946 178.644 163.419 177.434 167.12L153.084 167.12C152.024 167.12 151.154 167.982 151.154 169.046C151.154 170.109 152.024 170.971 153.084 170.971ZM202.804 188.344C200.674 188.344 198.944 186.62 198.944 184.493C198.944 182.366 200.674 180.642 202.804 180.642C204.924 180.642 206.654 182.366 206.654 184.493C206.654 186.62 204.924 188.344 202.804 188.344ZM202.804 176.762C199.284 176.765 196.214 179.147 195.344 182.553L191.144 182.553C188.534 182.549 185.954 181.961 183.604 180.83L177.144 177.718C174.274 176.334 171.124 175.612 167.934 175.604L153.084 175.604C151.954 175.506 150.974 176.399 150.974 177.537C150.974 178.674 151.954 179.568 153.084 179.469L167.934 179.469C170.544 179.469 173.124 180.058 175.484 181.192L181.934 184.305C184.814 185.684 187.954 186.401 191.144 186.404L195.344 186.404C196.354 190.276 200.154 192.731 204.094 192.056C208.044 191.38 210.814 187.799 210.474 183.813C210.134 179.827 206.804 176.763 202.804 176.762Z"/></g><g mask="url(#mask-Kyn6kutNRMhA78rGKWvmG)"><path fill="#005DA2" d="M38.2065 136.891C40.3466 136.883 42.0765 138.61 42.0865 140.747C42.0865 142.884 40.3666 144.619 38.2266 144.622C36.0865 144.625 34.3566 142.893 34.3566 140.757C34.3666 138.631 36.0765 136.907 38.2065 136.891ZM73.6765 158.868C71.0565 158.868 68.8766 156.848 68.6765 154.235L87.9365 154.235C88.9966 154.235 89.8666 153.373 89.8666 152.31C89.8666 151.246 88.9966 150.384 87.9365 150.384L68.6565 150.384L68.6565 147.691C68.6565 142.795 64.6865 138.824 59.7965 138.816L45.6665 138.816C44.3165 133.613 38.1965 131.345 33.7865 134.416C29.3766 137.486 29.3766 144.013 33.7865 147.083C38.1965 150.153 44.3165 147.885 45.6665 142.682L59.7965 142.682C62.5565 142.682 64.7965 144.925 64.7965 147.691L64.7965 150.384L56.6765 150.384C55.4766 146.679 51.0365 145.189 47.8466 147.42C44.6565 149.652 44.5365 154.334 47.6066 156.73C50.6765 159.127 55.1865 157.872 56.5765 154.235L64.8265 154.235C65.0365 158.975 68.9265 162.716 73.6765 162.719L87.9365 162.719C88.9966 162.719 89.8666 161.857 89.8666 160.793C89.8666 159.73 88.9966 158.868 87.9365 158.868L73.6765 158.868ZM87.9365 171.97C88.9966 171.97 89.8666 171.108 89.8666 170.045C89.8666 168.981 88.9966 168.119 87.9365 168.119L63.6166 168.119C62.4065 164.419 57.9565 162.945 54.7765 165.188C51.5865 167.432 51.4866 172.114 54.5665 174.499C57.6466 176.884 62.1466 175.612 63.5265 171.97L87.9365 171.97ZM38.2065 189.343C36.0665 189.343 34.3365 187.61 34.3365 185.473C34.3466 183.336 36.0765 181.607 38.2166 181.612C40.3566 181.618 42.0765 183.356 42.0665 185.492C42.0665 187.621 40.3365 189.343 38.2065 189.343ZM38.2065 177.761C34.1965 177.753 30.8466 180.821 30.4966 184.819C30.1565 188.817 32.9365 192.41 36.8966 193.085C40.8466 193.759 44.6565 191.289 45.6665 187.403L49.8566 187.403C53.0465 187.4 56.1965 186.683 59.0665 185.304L65.5265 182.191C67.8766 181.061 70.4565 180.472 73.0665 180.468L87.9365 180.468C88.9365 180.382 89.7065 179.542 89.7065 178.536C89.7065 177.529 88.9365 176.69 87.9365 176.603L73.0665 176.603C69.8766 176.611 66.7366 177.333 63.8566 178.717L57.3566 181.815C55.0066 182.939 52.4265 183.527 49.8165 183.538L45.6166 183.538C44.7466 180.132 41.6765 177.749 38.1665 177.747"/></g><g mask="url(#mask-Kyn6kutNRMhA78rGKWvmG)"><path d="M118.158 113.828C114.192 118.721 110.395 123.74 106.768 128.885C103.995 132.813 101.382 136.843 98.9283 140.974C93.5483 150.138 90.6483 157.695 90.6483 162.792C90.6483 180.005 104.218 193.933 120.918 193.933C137.628 193.933 151.208 180.005 151.208 162.792C151.208 157.695 148.318 150.138 142.868 140.988C140.428 136.867 137.818 132.837 135.038 128.899C130.592 122.568 125.885 116.439 120.918 110.513C120.068 111.526 119.158 112.641 118.198 113.828L118.158 113.828ZM84.1683 162.777C84.1683 156.219 87.4684 147.793 93.3684 137.716C95.7284 133.706 98.4683 129.507 101.498 125.179C106.678 117.824 112.202 110.716 118.068 103.853L118.458 103.404L120.898 100.639L123.308 103.404L123.698 103.853L124.788 105.127C130.242 111.584 135.405 118.273 140.278 125.193C143.308 129.536 146.068 133.706 148.388 137.731C154.308 147.865 157.608 156.219 157.608 162.777C157.608 183.523 141.178 200.419 120.878 200.419C100.578 200.419 84.1683 183.581 84.1683 162.777Z" fill="#005DA2"/></g><g mask="url(#mask-Kyn6kutNRMhA78rGKWvmG)"><path d="M120.868 189.17C106.688 189.146 95.2183 177.632 95.2583 163.458C95.2583 149.255 108.558 156.45 120.868 163.458C133.168 170.465 146.488 149.255 146.488 163.458C146.508 177.631 135.038 189.138 120.868 189.17Z" fill="#00B1EC"/></g><defs><mask id="mask-Kyn6kutNRMhA78rGKWvmG" style="mask-type:alpha" maskUnits="userSpaceOnUse"><rect x="30.5" y="100.63916015625" width="180" height="99.72169494628906" fill="#000000"/><rect x="30.5" y="100.63916015625" width="180" height="99.72169494628906" fill="#000000"/></mask></defs></svg>