<svg xmlns="http://www.w3.org/2000/svg" xmlns:xlink="http://www.w3.org/1999/xlink" width="729" height="375" viewBox="0 0 729 375" fill="none"><path fill="#FFFFFF" d="M0 375L729 375L729 0L0 0L0 375Z"/><g mask="url(#mask-f3_3pyj0IWdbyeESbJv25)"><path d="M205.265 113.828L131.575 70.9735C130.785 70.7393 129.965 70.61 129.145 70.5887C128.695 70.5826 128.245 70.6423 127.815 70.7663L53.4353 113.828C51.6052 115.041 51.5453 115.692 51.5453 116.935L51.5453 203.71C51.5453 204.952 51.5453 205.604 53.2352 206.669L128.285 250.322L129.415 250.322C130.475 250.13 131.425 249.562 132.105 248.724L132.485 248.31L205.885 206.432C206.785 205.706 207.325 204.627 207.365 203.473L207.365 116.995C207.455 116.107 206.685 115.248 205.265 113.828ZM129.475 77.366L199.255 117.054L168.215 135.048L131.365 114.153C130.855 113.917 130.295 113.805 129.735 113.828C128.915 113.83 128.095 113.96 127.315 114.213L93.5453 134.042L61.3752 116.048L129.475 77.366ZM127.075 241.089L57.3153 201.431L57.3153 121.523L62.6453 124.068L88.3652 139.043L88.3652 182.016C88.3652 183.229 88.3652 183.88 90.1052 184.975L127.075 204.923L127.075 241.089ZM130.385 199.892L127.075 197.909L95.0853 178.938L95.0853 140.05L106.915 133.391L129.525 120.635L163.865 140.76L163.865 179.767L130.385 199.892ZM200.705 201.431L132.845 240.171L132.845 204.154L168.215 183.969C169.105 183.245 169.635 182.162 169.665 181.01L169.665 140.997L200.765 122.914L200.705 201.431Z" fill="#005DA2"/></g><g mask="url(#mask-f3_3pyj0IWdbyeESbJv25)"><path d="M106.526 168.132C106.526 164.032 108.597 158.763 112.297 152.458C113.766 149.943 115.477 147.319 117.376 144.615C120.623 140.006 124.076 135.559 127.736 131.275L127.986 130.986L129.506 129.26L131.026 130.986L131.266 131.275L131.936 132.073C135.356 136.064 138.597 140.295 141.626 144.625C143.526 147.329 145.246 149.953 146.707 152.458C150.406 158.763 152.477 164.032 152.477 168.142C152.477 181.113 142.196 191.65 129.526 191.65C116.856 191.65 106.577 181.113 106.577 168.142L106.526 168.132Z" fill="#FFFFFF"/></g><g mask="url(#mask-f3_3pyj0IWdbyeESbJv25)"><path d="M127.746 137.491C125.273 140.558 122.9 143.698 120.626 146.91C118.896 149.364 117.256 151.899 115.727 154.473C112.366 160.21 110.516 164.93 110.516 168.122C110.516 178.888 119.006 187.599 129.477 187.599C140.087 187.456 148.576 178.736 148.436 168.122C148.436 164.93 146.587 160.21 143.227 154.483C141.686 151.896 140.05 149.375 138.316 146.92C135.536 142.929 132.593 139.094 129.486 135.416L127.746 137.491ZM106.526 168.132C106.526 164.032 108.597 158.763 112.297 152.458C113.766 149.943 115.477 147.319 117.376 144.615C120.623 140.006 124.076 135.559 127.736 131.275L127.986 130.986L129.506 129.26L131.026 130.986L131.266 131.275L131.936 132.073C135.356 136.064 138.597 140.295 141.626 144.625C143.526 147.329 145.246 149.953 146.707 152.458C150.406 158.763 152.477 164.032 152.477 168.142C152.477 181.113 142.196 191.65 129.526 191.65C116.856 191.65 106.577 181.113 106.577 168.142L106.526 168.132Z" fill="#005DA2"/></g><g mask="url(#mask-f3_3pyj0IWdbyeESbJv25)"><path d="M129.471 184.647C120.611 184.624 113.441 177.427 113.451 168.563C113.451 159.672 121.781 164.172 129.471 168.563C137.161 172.953 145.501 159.672 145.501 168.563C145.511 177.428 138.341 184.625 129.471 184.647Z" fill="#00B1EC"/></g><defs><mask id="mask-f3_3pyj0IWdbyeESbJv25" style="mask-type:alpha" maskUnits="userSpaceOnUse"><rect x="51.5452880859375" y="70.5" width="155.90924072265625" height="180" fill="#000000"/><rect x="51.5452880859375" y="70.5" width="155.90924072265625" height="180" fill="#000000"/></mask></defs></svg>