<svg xmlns="http://www.w3.org/2000/svg" xmlns:xlink="http://www.w3.org/1999/xlink" width="2447" height="300" viewBox="0 0 2447 300" fill="none"><path fill="#FFFFFF" d="M0 300L2447 300L2447 0L0 0L0 300Z"/><g mask="url(#mask-L2aEa0CsYnKvBHDIhM1gQ)"><path d="M343.17 176.18C386.88 176.18 422.36 156.657 422.36 132.62C422.36 108.583 386.92 89.0607 343.17 89.0607C299.43 89.0607 263.95 108.545 263.95 132.62C263.95 156.694 299.43 176.18 343.17 176.18ZM343.17 172.192C301.35 172.192 267.94 153.835 267.94 132.62C267.94 111.404 301.35 93.0481 343.17 93.0481C385 93.0481 418.41 111.404 418.41 132.62C418.41 153.835 385 172.192 343.17 172.192Z" fill="#005DA2"/></g><g mask="url(#mask-L2aEa0CsYnKvBHDIhM1gQ)"><path d="M343.17 215.753C386.88 215.753 422.36 196.268 422.36 172.193C422.36 148.119 386.92 128.671 343.17 128.671C299.43 128.671 263.95 148.156 263.95 172.193C263.95 196.23 299.43 215.753 343.17 215.753ZM343.17 211.991C301.35 211.991 267.94 193.634 267.94 172.381C267.94 151.128 301.35 132.809 343.17 132.809C385 132.809 418.41 151.166 418.41 172.381C418.41 193.597 385 211.803 343.17 211.803L343.17 211.991Z" fill="#005DA2"/></g><g mask="url(#mask-L2aEa0CsYnKvBHDIhM1gQ)"><path d="M343.17 244.353C386.88 244.353 422.36 224.83 422.36 200.794C422.36 176.757 386.92 157.271 343.17 157.271C299.43 157.271 263.95 176.757 263.95 200.794C263.95 224.83 299.43 244.353 343.17 244.353ZM343.17 240.366C301.35 240.366 267.94 222.009 267.94 200.794C267.94 179.578 301.35 161.221 343.17 161.221C385 161.221 418.41 179.578 418.41 200.794C418.41 222.009 385 240.366 343.17 240.366Z" fill="#005DA2"/></g><g mask="url(#mask-L2aEa0CsYnKvBHDIhM1gQ)"><path d="M341.176 74.1011L344.936 74.1011L344.936 240.365L341.176 240.365L341.176 74.1011Z" fill="#005DA2"/></g><g mask="url(#mask-L2aEa0CsYnKvBHDIhM1gQ)"><path d="M260 171.925C260.14 176.113 263.51 179.468 267.7 179.587C271.89 179.707 275.45 176.549 275.83 172.376C275.87 172.228 275.87 172.073 275.83 171.925C275.7 167.733 272.33 164.365 268.14 164.236C263.95 164.106 260.38 167.26 260 171.436L260 171.925Z" fill="#005DA2"/></g><g mask="url(#mask-L2aEa0CsYnKvBHDIhM1gQ)"><path d="M395.426 106.178C395.006 110.734 398.516 114.703 403.086 114.844C407.656 114.985 411.406 111.24 411.266 106.667L411.266 106.178C410.976 102.016 407.516 98.7876 403.346 98.7876C399.176 98.7876 395.716 102.016 395.426 106.178Z" fill="#005DA2"/></g><g mask="url(#mask-L2aEa0CsYnKvBHDIhM1gQ)"><path d="M410.466 171.925C410.606 176.113 413.986 179.468 418.177 179.587C422.366 179.707 425.927 176.549 426.307 172.376L426.307 171.925C426.177 167.733 422.807 164.365 418.616 164.236C414.427 164.106 410.856 167.26 410.466 171.436C410.427 171.597 410.427 171.764 410.466 171.925Z" fill="#005DA2"/></g><g mask="url(#mask-L2aEa0CsYnKvBHDIhM1gQ)"><path d="M274.858 106.321C274.638 110.804 278.168 114.584 282.658 114.66C287.138 114.736 290.798 111.078 290.728 106.59C290.648 102.101 286.868 98.5699 282.388 98.7981C278.328 99.022 275.088 102.262 274.858 106.321Z" fill="#005DA2"/></g><g mask="url(#mask-L2aEa0CsYnKvBHDIhM1gQ)"><path d="M317.457 97.3165C317.457 92.7469 319.757 86.8765 323.887 79.8498C325.517 77.048 327.437 74.1239 329.547 71.1109C333.161 65.9743 337.011 61.0193 341.097 56.2459L341.377 55.9234L343.067 54L344.757 55.9234L345.017 56.2459L345.777 57.1353C349.577 61.5826 353.197 66.2967 356.577 71.122C358.687 74.135 360.597 77.0591 362.237 79.8498C366.357 86.8765 368.657 92.7469 368.657 97.3276C368.657 111.781 357.207 123.522 343.087 123.522C328.967 123.522 317.517 111.781 317.517 97.3276L317.457 97.3165Z" fill="#FFFFFF"/></g><g mask="url(#mask-L2aEa0CsYnKvBHDIhM1gQ)"><path d="M341.107 63.1726C338.347 66.5895 335.701 70.0881 333.167 73.6682C331.247 76.4032 329.407 79.2273 327.707 82.0957C323.967 88.4887 321.907 93.7476 321.907 97.3055C321.907 109.302 331.367 119.008 343.027 119.008C354.857 118.849 364.317 109.132 364.157 97.3055C364.157 93.7476 362.097 88.4887 358.347 82.1068C356.641 79.2235 354.817 76.4143 352.877 73.6792C349.784 69.2319 346.507 64.9588 343.047 60.8599L341.107 63.1726ZM317.457 97.3166C317.457 92.747 319.757 86.8766 323.887 79.8499C325.517 77.0481 327.437 74.124 329.547 71.111C333.161 65.9744 337.011 61.0194 341.097 56.2459L341.377 55.9235L343.067 54L344.757 55.9235L345.017 56.2459L345.777 57.1354C349.577 61.5827 353.197 66.2968 356.577 71.1221C358.687 74.1351 360.597 77.0592 362.237 79.8499C366.357 86.8766 368.657 92.747 368.657 97.3277C368.657 111.781 357.207 123.522 343.087 123.522C328.967 123.522 317.517 111.781 317.517 97.3277L317.457 97.3166Z" fill="#005DA2"/></g><g mask="url(#mask-L2aEa0CsYnKvBHDIhM1gQ)"><path d="M343.023 115.717C333.153 115.692 325.163 107.672 325.173 97.7946C325.173 87.8883 334.453 92.9026 343.023 97.7946C351.603 102.686 360.893 87.8883 360.893 97.7946C360.903 107.674 352.903 115.692 343.023 115.717Z" fill="#00B1EC"/></g><g mask="url(#mask-OpDNVO44jPDMog3z7bNt2)"><path d="M81.2549 119.261L142.683 119.261C144.261 119.261 145.54 117.982 145.54 116.404C145.54 114.826 144.261 113.547 142.683 113.547L81.2549 113.547C79.6769 113.547 78.3979 114.826 78.3979 116.404C78.3979 117.982 79.6769 119.261 81.2549 119.261ZM53.6359 119.261L61.9689 119.261L61.9689 126.88L72.4449 126.88L72.4449 105.928L61.9689 105.928L61.9689 113.547L53.6359 113.547C52.0579 113.547 50.7789 114.826 50.7789 116.404C50.7789 117.982 52.0579 119.261 53.6359 119.261ZM142.683 144.261L111.969 144.261C110.391 144.261 109.112 145.54 109.112 147.118C109.112 148.696 110.391 149.975 111.969 149.975L142.683 149.975C144.261 149.975 145.54 148.696 145.54 147.118C145.54 145.54 144.261 144.261 142.683 144.261ZM53.6359 149.975L92.9209 149.975L92.9209 157.594L103.397 157.594L103.397 136.642L92.9209 136.642L92.9209 144.261L53.6359 144.261C52.0579 144.261 50.7789 145.54 50.7789 147.118C50.7789 148.696 52.0579 149.975 53.6359 149.975ZM120.778 176.165L53.6359 176.165C52.0579 176.165 50.7789 177.444 50.7789 179.022C50.7789 180.6 52.0579 181.879 53.6359 181.879L120.778 181.879L120.778 189.498L131.254 189.498L131.254 168.546L120.778 168.546L120.778 176.165Z" fill="#005DA2"/></g><g mask="url(#mask-OpDNVO44jPDMog3z7bNt2)"><path d="M61.6687 93.5058C61.6687 91.656 63.1697 90.1549 65.0197 90.1549L73.3957 90.1549C78.9477 90.1549 83.4477 94.6556 83.4477 100.208L83.4477 108.584C83.4477 110.434 81.9477 111.934 80.0967 111.934C78.2467 111.934 76.7467 110.434 76.7467 108.584L76.7467 100.208C76.7467 98.3557 75.2477 96.8567 73.3957 96.8567L65.0197 96.8567C63.1687 96.8567 61.6687 95.3564 61.6687 93.5058Z" fill="#00B1EC"/></g><g mask="url(#mask-OpDNVO44jPDMog3z7bNt2)"><path d="M133.729 195.776C133.729 190.283 136.495 183.226 141.454 174.78C143.418 171.412 145.717 167.897 148.256 164.275C152.604 158.101 157.232 152.144 162.142 146.406L162.477 146.018L164.508 143.706L166.539 146.018L166.86 146.406L167.769 147.475C172.34 152.821 176.683 158.488 180.746 164.288C183.286 167.91 185.584 171.425 187.549 174.78C192.507 183.226 195.274 190.283 195.274 195.789C195.274 213.163 181.508 227.277 164.535 227.277C147.561 227.277 133.795 213.163 133.795 195.789L133.729 195.776Z" fill="#FFFFFF"/></g><g mask="url(#mask-OpDNVO44jPDMog3z7bNt2)"><path d="M162.156 154.732C158.841 158.84 155.66 163.045 152.613 167.349C150.301 170.636 148.096 174.031 146.051 177.479C141.547 185.164 139.075 191.486 139.075 195.762C139.075 210.183 150.448 221.851 164.468 221.851C178.685 221.66 190.054 209.979 189.861 195.762C189.861 191.486 187.389 185.164 182.885 177.493C180.826 174.027 178.634 170.65 176.309 167.362C172.585 162.016 168.642 156.88 164.481 151.952L162.156 154.732ZM133.729 195.776C133.729 190.283 136.495 183.226 141.454 174.78C143.418 171.412 145.717 167.897 148.256 164.275C152.604 158.101 157.232 152.144 162.142 146.406L162.477 146.018L164.508 143.706L166.539 146.018L166.86 146.406L167.769 147.475C172.34 152.821 176.683 158.488 180.746 164.288C183.286 167.91 185.584 171.425 187.549 174.78C192.507 183.226 195.274 190.283 195.274 195.789C195.274 213.163 181.508 227.277 164.535 227.277C147.561 227.277 133.795 213.163 133.795 195.789L133.729 195.776Z" fill="#005DA2"/></g><g mask="url(#mask-OpDNVO44jPDMog3z7bNt2)"><path d="M164.468 217.895C152.594 217.865 142.989 208.224 143.004 196.351C143.004 184.442 154.164 190.47 164.468 196.351C174.772 202.231 185.945 184.442 185.945 196.351C185.953 208.226 176.343 217.865 164.468 217.895Z" fill="#00B1EC"/></g><g mask="url(#mask-OpDNVO44jPDMog3z7bNt2)"><path d="M36.7263 72.7231L156.326 72.7231C162.953 72.7231 168.326 78.0957 168.326 84.7231L168.326 143.171C166.954 141.439 165.582 140.573 164.21 140.573C162.838 140.573 161.466 141.439 160.094 143.171L160.094 94.7842C160.094 88.1568 154.722 82.7842 148.094 82.7842L44.9583 82.7842C38.3313 82.7842 32.9583 88.1568 32.9583 94.7842L32.9583 194.262C32.9583 200.889 38.3313 206.262 44.9583 206.262C104.598 206.262 133.651 206.262 132.116 206.262C131.349 206.262 131.663 207.938 133.059 211.292C135.156 214.646 136.52 216.323 137.153 216.323C138.418 216.323 104.943 216.323 36.7263 216.323C30.0993 216.323 24.7263 210.95 24.7263 204.323L24.7263 84.7231C24.7263 78.0957 30.0993 72.7231 36.7263 72.7231Z" fill-rule="evenodd" fill="#005DA2"/></g><defs><mask id="mask-L2aEa0CsYnKvBHDIhM1gQ" style="mask-type:alpha" maskUnits="userSpaceOnUse"><rect x="260" y="54.3525390625" width="166.2641143798828" height="190" fill="#000000"/><rect x="260" y="54.3525390625" width="166.2641143798828" height="190" fill="#000000"/></mask><mask id="mask-OpDNVO44jPDMog3z7bNt2" style="mask-type:alpha" maskUnits="userSpaceOnUse"><rect x="10" y="50" width="200" height="200" fill="#000000"/><rect x="10" y="50" width="200" height="200" fill="#000000"/></mask></defs></svg>