<svg xmlns="http://www.w3.org/2000/svg" xmlns:xlink="http://www.w3.org/1999/xlink" width="2147" height="758" viewBox="0 0 2147 758" fill="none"><path fill="url(#linear_fill_4_1_0)" d="M0 758L2147 758L2147 0L0 0L0 758Z"/><path fill="rgba(0, 0, 0, 0.12)" d="M117 75L912 75C915.314 75 918 77.6863 918 81L918 677C918 680.314 915.314 683 912 683L117 683C113.686 683 111 680.314 111 677L111 81C111 77.6863 113.686 75 117 75ZM117 76C114.239 76 112 78.2386 112 81L112 677C112 679.761 114.239 682 117 682L912 682C914.761 682 917 679.761 917 677L917 81C917 78.2386 914.761 76 912 76L117 76Z"/><path d="M230.051 576.066C230.051 581.313 229.074 585.916 227.119 589.876C225.165 593.836 222.516 597.141 219.173 599.79C215.83 602.439 211.921 604.432 207.446 605.769C202.972 607.106 198.188 607.774 193.097 607.774C189.651 607.774 186.449 607.491 183.492 606.926C180.534 606.36 177.924 605.678 175.661 604.881C173.398 604.084 171.508 603.249 169.991 602.374C168.473 601.499 167.38 600.728 166.712 600.06C166.043 599.392 165.568 598.427 165.285 597.167C165.002 595.907 164.86 594.094 164.86 591.728C164.86 590.134 164.912 588.796 165.015 587.716C165.117 586.636 165.285 585.762 165.516 585.093C165.748 584.425 166.056 583.949 166.442 583.666C166.828 583.383 167.278 583.241 167.792 583.241C168.512 583.241 169.528 583.666 170.839 584.514C172.151 585.363 173.835 586.302 175.893 587.33C177.95 588.359 180.406 589.298 183.26 590.146C186.115 590.995 189.419 591.419 193.174 591.419C195.643 591.419 197.854 591.124 199.809 590.532C201.763 589.941 203.422 589.105 204.785 588.024C206.148 586.944 207.189 585.607 207.909 584.013C208.629 582.419 208.989 580.644 208.989 578.689C208.989 576.427 208.372 574.485 207.138 572.865C205.903 571.245 204.296 569.805 202.316 568.544C200.336 567.284 198.086 566.102 195.565 564.996C193.045 563.89 190.448 562.72 187.773 561.485C185.099 560.251 182.502 558.85 179.981 557.281C177.461 555.713 175.211 553.835 173.231 551.649C171.251 549.463 169.643 546.879 168.409 543.896C167.175 540.913 166.558 537.338 166.558 533.172C166.558 528.389 167.445 524.184 169.219 520.558C170.994 516.932 173.385 513.924 176.394 511.532C179.403 509.14 182.952 507.353 187.04 506.17C191.129 504.988 195.462 504.396 200.04 504.396C202.406 504.396 204.772 504.576 207.138 504.936C209.504 505.296 211.715 505.785 213.772 506.401C215.829 507.019 217.655 507.713 219.25 508.484C220.845 509.256 221.899 509.899 222.413 510.413C222.928 510.928 223.275 511.365 223.455 511.725C223.635 512.085 223.789 512.561 223.917 513.152C224.046 513.744 224.136 514.489 224.188 515.389C224.239 516.289 224.265 517.408 224.265 518.745C224.265 520.237 224.226 521.497 224.149 522.525C224.072 523.554 223.943 524.403 223.763 525.071C223.583 525.74 223.326 526.229 222.992 526.537C222.657 526.846 222.207 527 221.642 527C221.076 527 220.176 526.64 218.941 525.92C217.707 525.2 216.19 524.416 214.39 523.567C212.589 522.719 210.506 521.947 208.141 521.252C205.775 520.558 203.177 520.211 200.349 520.211C198.137 520.211 196.208 520.481 194.562 521.021C192.917 521.561 191.541 522.307 190.435 523.258C189.329 524.21 188.506 525.355 187.966 526.691C187.426 528.029 187.156 529.443 187.156 530.935C187.156 533.147 187.76 535.062 188.969 536.682C190.178 538.302 191.798 539.742 193.83 541.002C195.861 542.263 198.163 543.446 200.734 544.551C203.306 545.657 205.929 546.828 208.603 548.062C211.278 549.296 213.901 550.698 216.473 552.266C219.044 553.835 221.333 555.712 223.339 557.898C225.345 560.084 226.965 562.656 228.199 565.613C229.434 568.571 230.051 572.055 230.051 576.066ZM263.842 603.377C263.842 603.891 263.688 604.341 263.379 604.727C263.07 605.113 262.543 605.434 261.797 605.691C261.052 605.948 260.062 606.141 258.827 606.27C257.593 606.399 256.024 606.463 254.121 606.463C252.218 606.463 250.65 606.399 249.415 606.27C248.18 606.141 247.19 605.948 246.445 605.691C245.699 605.434 245.172 605.113 244.863 604.727C244.554 604.341 244.4 603.891 244.4 603.377L244.4 534.715C244.4 534.201 244.554 533.751 244.863 533.365C245.172 532.979 245.699 532.645 246.445 532.362C247.19 532.08 248.18 531.861 249.415 531.706C250.65 531.552 252.218 531.475 254.121 531.475C256.024 531.475 257.593 531.552 258.827 531.706C260.062 531.861 261.052 532.08 261.797 532.362C262.543 532.645 263.07 532.979 263.379 533.365C263.688 533.751 263.842 534.201 263.842 534.715L263.842 603.377ZM265.308 511.262C265.308 515.171 264.511 517.871 262.916 519.362C261.321 520.854 258.364 521.6 254.044 521.6C249.672 521.6 246.727 520.88 245.21 519.439C243.693 517.999 242.935 515.402 242.935 511.647C242.935 507.739 243.719 505.026 245.288 503.508C246.857 501.991 249.827 501.232 254.198 501.232C258.519 501.232 261.45 501.965 262.993 503.431C264.536 504.897 265.308 507.508 265.308 511.262ZM392.68 603.377C392.68 603.891 392.525 604.341 392.217 604.727C391.908 605.113 391.394 605.434 390.674 605.691C389.954 605.948 388.976 606.141 387.742 606.27C386.508 606.399 384.939 606.463 383.036 606.463C381.081 606.463 379.487 606.399 378.253 606.27C377.018 606.141 376.028 605.948 375.283 605.691C374.537 605.434 374.022 605.113 373.74 604.727C373.456 604.341 373.315 603.891 373.315 603.377L373.315 562.565C373.315 560.251 373.096 558.143 372.66 556.239C372.222 554.337 371.554 552.704 370.654 551.34C369.754 549.978 368.622 548.923 367.259 548.177C365.896 547.432 364.263 547.059 362.36 547.059C360.046 547.059 357.706 547.959 355.34 549.759C352.974 551.559 350.402 554.182 347.625 557.628L347.625 603.377C347.625 603.891 347.47 604.341 347.162 604.727C346.853 605.113 346.326 605.434 345.581 605.691C344.835 605.948 343.844 606.141 342.61 606.27C341.376 606.399 339.833 606.463 337.981 606.463C336.078 606.463 334.509 606.399 333.275 606.27C332.041 606.141 331.051 605.948 330.305 605.691C329.559 605.434 329.032 605.113 328.724 604.727C328.415 604.341 328.261 603.891 328.261 603.377L328.261 562.565C328.261 560.251 328.042 558.143 327.605 556.239C327.167 554.337 326.512 552.704 325.638 551.34C324.763 549.978 323.631 548.923 322.243 548.177C320.854 547.432 319.234 547.059 317.383 547.059C315.017 547.059 312.651 547.959 310.285 549.759C307.919 551.559 305.373 554.182 302.647 557.628L302.647 603.377C302.647 603.891 302.493 604.341 302.185 604.727C301.876 605.113 301.349 605.434 300.603 605.691C299.857 605.948 298.867 606.141 297.633 606.27C296.398 606.399 294.829 606.463 292.927 606.463C291.023 606.463 289.455 606.399 288.221 606.27C286.986 606.141 285.996 605.948 285.25 605.691C284.504 605.434 283.977 605.113 283.669 604.727C283.36 604.341 283.206 603.891 283.206 603.377L283.206 534.561C283.206 534.047 283.334 533.596 283.592 533.21C283.849 532.825 284.312 532.504 284.98 532.246C285.648 531.989 286.51 531.796 287.565 531.667C288.619 531.539 289.943 531.475 291.538 531.475C293.184 531.475 294.547 531.539 295.627 531.667C296.707 531.796 297.542 531.989 298.134 532.246C298.725 532.504 299.149 532.825 299.407 533.21C299.664 533.596 299.793 534.047 299.793 534.561L299.793 542.507C303.599 538.393 307.392 535.307 311.172 533.249C314.952 531.192 318.9 530.163 323.015 530.163C325.843 530.163 328.389 530.459 330.652 531.05C332.915 531.642 334.934 532.491 336.708 533.596C338.482 534.702 340.013 536.027 341.299 537.569C342.585 539.113 343.665 540.836 344.539 542.738C346.596 540.527 348.615 538.624 350.595 537.029C352.575 535.435 354.529 534.137 356.458 533.133C358.387 532.131 360.316 531.385 362.245 530.896C364.173 530.408 366.14 530.163 368.146 530.163C372.724 530.163 376.581 530.935 379.719 532.478C382.856 534.021 385.389 536.117 387.318 538.765C389.246 541.414 390.622 544.513 391.445 548.062C392.268 551.611 392.68 555.365 392.68 559.325L392.68 603.377ZM477.003 603.377C477.003 603.891 476.874 604.341 476.617 604.727C476.359 605.113 475.909 605.434 475.267 605.691C474.624 605.948 473.775 606.141 472.721 606.27C471.667 606.399 470.342 606.463 468.748 606.463C467.05 606.463 465.675 606.399 464.621 606.27C463.566 606.141 462.73 605.948 462.113 605.691C461.496 605.434 461.059 605.113 460.802 604.727C460.544 604.341 460.416 603.891 460.416 603.377L460.416 595.431C456.61 599.546 452.739 602.631 448.805 604.688C444.87 606.745 440.794 607.774 436.577 607.774C431.845 607.774 427.872 607.003 424.658 605.46C421.443 603.917 418.846 601.809 416.866 599.134C414.886 596.46 413.471 593.361 412.623 589.837C411.774 586.315 411.35 581.93 411.35 576.684L411.35 534.561C411.35 534.047 411.491 533.596 411.774 533.21C412.056 532.825 412.571 532.504 413.317 532.246C414.063 531.989 415.066 531.796 416.326 531.667C417.586 531.539 419.141 531.475 420.993 531.475C422.896 531.475 424.465 531.539 425.699 531.667C426.933 531.796 427.923 531.989 428.669 532.246C429.415 532.504 429.942 532.825 430.251 533.21C430.559 533.596 430.714 534.047 430.714 534.561L430.714 573.443C430.714 577.044 430.945 579.796 431.408 581.698C431.871 583.602 432.578 585.235 433.53 586.597C434.481 587.961 435.69 589.015 437.156 589.76C438.621 590.506 440.331 590.879 442.286 590.879C444.754 590.879 447.236 589.979 449.731 588.179C452.225 586.379 454.887 583.756 457.716 580.31L457.716 534.561C457.716 534.047 457.857 533.596 458.14 533.21C458.422 532.825 458.937 532.504 459.683 532.246C460.429 531.989 461.419 531.796 462.653 531.667C463.887 531.539 465.456 531.475 467.359 531.475C469.262 531.475 470.831 531.539 472.065 531.667C473.299 531.796 474.277 531.989 474.997 532.246C475.717 532.504 476.231 532.825 476.54 533.21C476.848 533.596 477.003 534.047 477.003 534.561L477.003 603.377ZM601.829 534.406C601.829 534.972 601.752 535.667 601.598 536.489C601.443 537.313 601.16 538.496 600.749 540.038L582.388 602.297C582.13 603.171 581.796 603.878 581.385 604.418C580.973 604.959 580.343 605.383 579.495 605.691C578.646 606 577.437 606.206 575.869 606.309C574.3 606.412 572.255 606.463 569.735 606.463C567.215 606.463 565.157 606.399 563.563 606.27C561.969 606.141 560.722 605.923 559.822 605.614C558.922 605.305 558.266 604.881 557.854 604.341C557.442 603.801 557.134 603.12 556.929 602.297L545.356 560.482L545.202 559.788L545.048 560.482L534.401 602.297C534.195 603.171 533.9 603.878 533.514 604.418C533.128 604.959 532.473 605.383 531.547 605.691C530.621 606 529.361 606.206 527.767 606.309C526.172 606.412 524.115 606.463 521.595 606.463C519.023 606.463 516.952 606.399 515.384 606.27C513.815 606.141 512.581 605.923 511.681 605.614C510.781 605.305 510.125 604.881 509.714 604.341C509.302 603.801 508.994 603.12 508.788 602.297L490.581 540.038C490.118 538.547 489.822 537.377 489.694 536.528C489.565 535.68 489.501 534.972 489.501 534.406C489.501 533.892 489.642 533.442 489.925 533.056C490.208 532.671 490.722 532.362 491.468 532.13C492.214 531.899 493.217 531.732 494.477 531.629C495.737 531.527 497.318 531.475 499.222 531.475C501.279 531.475 502.95 531.527 504.236 531.629C505.522 531.732 506.525 531.912 507.245 532.169C507.965 532.427 508.466 532.774 508.75 533.21C509.032 533.648 509.251 534.175 509.405 534.792L523.061 585.324L523.215 586.25L523.369 585.324L536.176 534.792C536.33 534.175 536.574 533.648 536.909 533.21C537.243 532.774 537.744 532.427 538.413 532.169C539.081 531.912 540.02 531.732 541.229 531.629C542.437 531.527 543.993 531.475 545.896 531.475C547.799 531.475 549.342 531.539 550.525 531.667C551.708 531.796 552.647 531.976 553.341 532.208C554.035 532.44 554.524 532.748 554.807 533.133C555.089 533.519 555.308 533.969 555.463 534.483L569.195 585.401L569.427 586.25L569.581 585.324L582.696 534.792C582.799 534.175 583.005 533.648 583.313 533.21C583.621 532.774 584.136 532.427 584.856 532.169C585.576 531.912 586.554 531.732 587.788 531.629C589.022 531.527 590.591 531.475 592.494 531.475C594.397 531.475 595.953 531.527 597.162 531.629C598.37 531.732 599.322 531.899 600.016 532.13C600.71 532.362 601.186 532.671 601.443 533.056C601.7 533.442 601.829 533.892 601.829 534.406ZM671.186 603.608C671.186 604.328 670.928 604.894 670.414 605.306C669.9 605.717 669.09 606.013 667.984 606.193C666.878 606.373 665.245 606.463 663.085 606.463C660.77 606.463 659.086 606.373 658.032 606.193C656.977 606.013 656.231 605.717 655.794 605.306C655.357 604.894 655.139 604.328 655.139 603.608L655.139 598.131C652.31 601.166 649.083 603.532 645.457 605.229C641.831 606.926 637.806 607.774 633.383 607.774C629.731 607.774 626.375 607.298 623.315 606.347C620.255 605.396 617.606 603.981 615.369 602.104C613.131 600.227 611.395 597.9 610.161 595.122C608.927 592.345 608.31 589.105 608.31 585.401C608.31 581.39 609.094 577.906 610.663 574.948C612.231 571.991 614.571 569.548 617.683 567.619C620.795 565.691 624.665 564.263 629.294 563.337C633.922 562.411 639.297 561.948 645.418 561.948L652.13 561.948L652.13 557.782C652.13 555.622 651.911 553.732 651.474 552.112C651.036 550.492 650.316 549.142 649.314 548.062C648.311 546.982 646.974 546.184 645.302 545.67C643.63 545.156 641.56 544.898 639.092 544.898C635.851 544.898 632.958 545.259 630.413 545.979C627.867 546.699 625.616 547.496 623.662 548.37C621.707 549.245 620.074 550.042 618.763 550.762C617.451 551.482 616.384 551.842 615.562 551.842C614.996 551.842 614.494 551.662 614.057 551.302C613.619 550.942 613.259 550.428 612.977 549.759C612.694 549.091 612.475 548.268 612.321 547.29C612.167 546.313 612.09 545.233 612.09 544.05C612.09 542.456 612.218 541.196 612.476 540.27C612.732 539.344 613.221 538.508 613.941 537.762C614.661 537.017 615.921 536.194 617.722 535.293C619.522 534.393 621.63 533.558 624.048 532.786C626.465 532.015 629.101 531.385 631.956 530.896C634.81 530.408 637.754 530.163 640.789 530.163C646.189 530.163 650.805 530.691 654.637 531.745C658.469 532.799 661.619 534.419 664.088 536.605C666.556 538.791 668.356 541.607 669.488 545.053C670.62 548.499 671.186 552.588 671.186 557.319L671.186 603.608ZM652.13 574.138L644.724 574.138C641.586 574.138 638.912 574.37 636.7 574.832C634.488 575.295 632.688 575.989 631.3 576.915C629.911 577.841 628.895 578.96 628.252 580.271C627.609 581.583 627.288 583.087 627.288 584.784C627.288 587.664 628.201 589.927 630.027 591.573C631.853 593.219 634.386 594.042 637.626 594.042C640.352 594.042 642.859 593.348 645.148 591.959C647.436 590.571 649.764 588.539 652.13 585.864L652.13 574.138ZM729.818 596.588C729.818 598.851 729.676 600.587 729.394 601.795C729.111 603.004 728.738 603.852 728.275 604.341C727.812 604.83 727.131 605.267 726.231 605.653C725.331 606.038 724.276 606.373 723.068 606.656C721.859 606.939 720.547 607.157 719.133 607.312C717.719 607.466 716.292 607.543 714.852 607.543C710.994 607.543 707.65 607.054 704.822 606.077C701.993 605.1 699.653 603.595 697.802 601.564C695.95 599.533 694.587 596.974 693.713 593.888C692.838 590.802 692.401 587.151 692.401 582.933L692.401 547.676L684.146 547.676C683.169 547.676 682.423 547.072 681.909 545.863C681.395 544.655 681.138 542.636 681.138 539.807C681.138 538.315 681.202 537.055 681.331 536.026C681.459 534.998 681.651 534.188 681.909 533.596C682.166 533.005 682.488 532.581 682.874 532.323C683.259 532.067 683.709 531.938 684.224 531.938L692.401 531.938L692.401 516.585C692.401 516.071 692.542 515.608 692.826 515.196C693.108 514.785 693.623 514.438 694.369 514.155C695.114 513.872 696.117 513.666 697.377 513.538C698.637 513.41 700.193 513.345 702.045 513.345C703.947 513.345 705.529 513.41 706.79 513.538C708.05 513.666 709.04 513.872 709.76 514.155C710.48 514.438 710.994 514.785 711.303 515.196C711.611 515.608 711.766 516.071 711.766 516.585L711.766 531.938L726.732 531.938C727.246 531.938 727.697 532.067 728.083 532.323C728.468 532.581 728.789 533.005 729.047 533.596C729.304 534.188 729.497 534.998 729.625 536.026C729.753 537.055 729.818 538.315 729.818 539.807C729.818 542.636 729.561 544.655 729.047 545.863C728.532 547.072 727.786 547.676 726.81 547.676L711.766 547.676L711.766 580.001C711.766 583.756 712.357 586.572 713.54 588.449C714.722 590.327 716.831 591.265 719.866 591.265C720.894 591.265 721.82 591.175 722.644 590.995C723.466 590.815 724.199 590.609 724.842 590.377C725.485 590.146 726.025 589.94 726.462 589.76C726.899 589.58 727.298 589.49 727.658 589.49C727.966 589.49 728.262 589.58 728.545 589.76C728.828 589.94 729.047 590.3 729.201 590.84C729.355 591.38 729.497 592.113 729.625 593.039C729.753 593.965 729.818 595.148 729.818 596.588ZM805.501 566.963C805.501 569.329 804.973 571.078 803.919 572.209C802.865 573.341 801.412 573.906 799.561 573.906L757.669 573.906C757.669 576.838 758.016 579.5 758.71 581.891C759.404 584.283 760.51 586.315 762.028 587.986C763.545 589.658 765.499 590.931 767.891 591.805C770.283 592.679 773.15 593.116 776.493 593.116C779.887 593.116 782.87 592.872 785.442 592.383C788.014 591.895 790.238 591.355 792.116 590.763C793.993 590.172 795.549 589.632 796.783 589.143C798.017 588.655 799.02 588.41 799.792 588.41C800.254 588.41 800.64 588.5 800.949 588.68C801.257 588.86 801.515 589.182 801.721 589.645C801.926 590.108 802.067 590.764 802.145 591.612C802.222 592.461 802.261 593.528 802.261 594.813C802.261 595.945 802.235 596.91 802.184 597.707C802.132 598.504 802.054 599.185 801.952 599.751C801.849 600.317 801.695 600.793 801.489 601.178C801.283 601.564 801.013 601.937 800.679 602.297C800.345 602.657 799.432 603.146 797.94 603.763C796.448 604.38 794.545 604.984 792.231 605.576C789.917 606.167 787.268 606.682 784.285 607.119C781.302 607.556 778.113 607.774 774.719 607.774C768.598 607.774 763.236 607.003 758.633 605.46C754.03 603.917 750.186 601.577 747.1 598.439C744.014 595.302 741.712 591.342 740.195 586.559C738.677 581.776 737.919 576.17 737.919 569.74C737.919 563.62 738.716 558.104 740.311 553.192C741.905 548.28 744.219 544.114 747.254 540.694C750.288 537.274 753.979 534.663 758.325 532.863C762.671 531.063 767.569 530.163 773.021 530.163C778.781 530.163 783.706 531.012 787.795 532.709C791.884 534.407 795.24 536.76 797.863 539.768C800.486 542.777 802.415 546.339 803.649 550.453C804.883 554.568 805.501 559.043 805.501 563.877L805.501 566.963ZM786.677 561.408C786.831 555.956 785.738 551.675 783.398 548.563C781.058 545.452 777.445 543.896 772.559 543.896C770.089 543.896 767.942 544.359 766.117 545.284C764.291 546.21 762.773 547.458 761.565 549.026C760.356 550.595 759.43 552.447 758.788 554.581C758.144 556.715 757.771 558.991 757.669 561.408L786.677 561.408ZM865.677 540.964C865.677 542.816 865.625 544.333 865.522 545.516C865.419 546.699 865.265 547.625 865.06 548.293C864.854 548.962 864.584 549.425 864.25 549.682C863.915 549.939 863.491 550.067 862.977 550.067C862.565 550.067 862.102 549.977 861.588 549.797C861.073 549.617 860.494 549.425 859.852 549.219C859.209 549.013 858.502 548.82 857.73 548.64C856.958 548.46 856.11 548.37 855.185 548.37C854.104 548.37 853.024 548.589 851.944 549.026C850.864 549.464 849.745 550.145 848.588 551.07C847.431 551.996 846.222 553.231 844.962 554.773C843.702 556.317 842.352 558.22 840.912 560.482L840.912 603.377C840.912 603.891 840.757 604.341 840.449 604.727C840.14 605.113 839.613 605.434 838.868 605.691C838.122 605.948 837.131 606.141 835.897 606.27C834.663 606.399 833.094 606.463 831.191 606.463C829.288 606.463 827.719 606.399 826.485 606.27C825.251 606.141 824.261 605.948 823.515 605.691C822.769 605.434 822.242 605.113 821.934 604.727C821.625 604.341 821.471 603.891 821.471 603.377L821.471 534.561C821.471 534.047 821.599 533.596 821.856 533.21C822.113 532.825 822.576 532.504 823.245 532.246C823.913 531.989 824.775 531.796 825.83 531.667C826.884 531.539 828.208 531.475 829.803 531.475C831.448 531.475 832.811 531.539 833.892 531.667C834.972 531.796 835.807 531.989 836.399 532.246C836.99 532.504 837.414 532.825 837.672 533.21C837.929 533.596 838.058 534.047 838.058 534.561L838.058 543.124C839.858 540.553 841.555 538.431 843.149 536.759C844.743 535.088 846.261 533.764 847.701 532.786C849.141 531.809 850.581 531.128 852.021 530.742C853.461 530.356 854.902 530.163 856.342 530.163C857.01 530.163 857.73 530.202 858.502 530.279C859.273 530.357 860.07 530.485 860.894 530.665C861.716 530.845 862.436 531.051 863.054 531.282C863.67 531.514 864.12 531.758 864.404 532.015C864.686 532.272 864.892 532.555 865.021 532.863C865.149 533.172 865.265 533.596 865.368 534.136C865.47 534.676 865.548 535.486 865.6 536.566C865.651 537.647 865.677 539.113 865.677 540.964Z" fill="#595757"/><path d="M413.104 286.516C413.104 286.885 413.095 287.254 413.077 287.622C413.059 287.991 413.032 288.359 412.995 288.726C412.959 289.094 412.914 289.46 412.86 289.824C412.806 290.189 412.743 290.552 412.671 290.914C412.598 291.276 412.517 291.636 412.428 291.994C412.338 292.352 412.24 292.708 412.133 293.06C412.026 293.414 411.91 293.764 411.786 294.111C411.661 294.459 411.528 294.803 411.387 295.144C411.246 295.485 411.096 295.822 410.939 296.155C410.781 296.489 410.615 296.818 410.441 297.144C410.267 297.47 410.085 297.79 409.895 298.106C409.706 298.423 409.508 298.735 409.303 299.041C409.098 299.348 408.886 299.65 408.666 299.946C408.446 300.242 408.219 300.533 407.985 300.818C407.751 301.104 407.51 301.383 407.262 301.656C407.014 301.93 406.76 302.197 406.499 302.458C406.238 302.719 405.97 302.973 405.697 303.221C405.424 303.469 405.144 303.709 404.859 303.943C404.574 304.177 404.283 304.404 403.986 304.624C403.689 304.844 403.388 305.057 403.081 305.261C402.774 305.467 402.463 305.664 402.146 305.853C401.829 306.043 401.508 306.225 401.183 306.399C400.858 306.573 400.528 306.739 400.194 306.896C399.861 307.054 399.523 307.204 399.182 307.345C398.841 307.486 398.497 307.619 398.149 307.743C397.802 307.867 397.451 307.983 397.098 308.09C396.745 308.198 396.39 308.296 396.032 308.385C395.674 308.475 395.314 308.556 394.952 308.628C394.59 308.7 394.226 308.763 393.861 308.817C393.496 308.871 393.129 308.916 392.762 308.952C392.395 308.988 392.027 309.016 391.658 309.034C391.29 309.052 390.921 309.061 390.552 309.061C390.183 309.061 389.814 309.052 389.445 309.034C389.076 309.016 388.708 308.988 388.341 308.952C387.974 308.916 387.608 308.871 387.243 308.817C386.878 308.763 386.514 308.7 386.152 308.628C385.79 308.556 385.43 308.475 385.072 308.385C384.714 308.296 384.358 308.198 384.005 308.09C383.652 307.983 383.302 307.867 382.954 307.743C382.607 307.619 382.263 307.486 381.922 307.345C381.581 307.204 381.243 307.054 380.91 306.896C380.576 306.739 380.246 306.573 379.921 306.399C379.596 306.225 379.275 306.043 378.958 305.853C378.641 305.664 378.33 305.467 378.023 305.261C377.716 305.057 377.414 304.844 377.118 304.624C376.821 304.404 376.53 304.177 376.245 303.943C375.96 303.709 375.68 303.469 375.407 303.221C375.134 302.973 374.866 302.719 374.605 302.458C374.344 302.197 374.09 301.93 373.842 301.656C373.594 301.383 373.353 301.104 373.119 300.818C372.885 300.533 372.658 300.242 372.438 299.946C372.218 299.65 372.006 299.348 371.801 299.041C371.596 298.735 371.398 298.423 371.208 298.106C371.019 297.79 370.837 297.47 370.663 297.144C370.489 296.818 370.323 296.489 370.165 296.155C370.008 295.822 369.858 295.485 369.717 295.144C369.576 294.803 369.443 294.459 369.318 294.111C369.194 293.764 369.078 293.414 368.971 293.06C368.864 292.708 368.765 292.352 368.676 291.994C368.586 291.636 368.505 291.276 368.433 290.914C368.361 290.552 368.298 290.189 368.244 289.824C368.19 289.46 368.145 289.094 368.109 288.726C368.072 288.359 368.045 287.991 368.027 287.622C368.009 287.254 368 286.885 368 286.516C368 286.148 368.009 285.779 368.027 285.41C368.045 285.042 368.072 284.674 368.109 284.306C368.145 283.939 368.19 283.573 368.244 283.208C368.298 282.844 368.361 282.48 368.433 282.118C368.505 281.756 368.586 281.396 368.676 281.038C368.765 280.68 368.864 280.325 368.971 279.972C369.078 279.619 369.194 279.269 369.318 278.921C369.443 278.574 369.576 278.23 369.717 277.889C369.858 277.548 370.008 277.211 370.165 276.877C370.323 276.544 370.489 276.215 370.663 275.889C370.837 275.563 371.019 275.242 371.208 274.926C371.398 274.61 371.596 274.298 371.801 273.991C372.006 273.685 372.218 273.383 372.438 273.086C372.658 272.79 372.885 272.5 373.119 272.214C373.353 271.929 373.594 271.65 373.842 271.376C374.09 271.103 374.344 270.836 374.605 270.575C374.866 270.314 375.134 270.06 375.407 269.812C375.68 269.564 375.96 269.323 376.245 269.089C376.53 268.855 376.821 268.628 377.118 268.408C377.414 268.188 377.716 267.976 378.023 267.771C378.33 267.566 378.641 267.369 378.958 267.179C379.275 266.989 379.596 266.807 379.921 266.633C380.246 266.459 380.576 266.294 380.91 266.136C381.243 265.978 381.581 265.829 381.922 265.687C382.263 265.547 382.607 265.414 382.954 265.289C383.302 265.165 383.652 265.05 384.005 264.942C384.358 264.835 384.714 264.737 385.072 264.647C385.43 264.557 385.79 264.477 386.152 264.405C386.514 264.333 386.878 264.27 387.243 264.215C387.608 264.161 387.974 264.116 388.341 264.08C388.708 264.044 389.076 264.017 389.445 263.998C389.814 263.98 390.183 263.971 390.552 263.971C390.921 263.971 391.29 263.98 391.658 263.998C392.027 264.017 392.395 264.044 392.762 264.08C393.129 264.116 393.496 264.161 393.861 264.215C394.226 264.27 394.59 264.333 394.952 264.405C395.314 264.477 395.674 264.557 396.032 264.647C396.39 264.737 396.745 264.835 397.098 264.942C397.451 265.05 397.802 265.165 398.149 265.289C398.497 265.414 398.841 265.547 399.182 265.687C399.523 265.829 399.861 265.978 400.194 266.136C400.528 266.294 400.858 266.459 401.183 266.633C401.508 266.807 401.829 266.989 402.146 267.179C402.463 267.369 402.774 267.566 403.081 267.771C403.388 267.976 403.689 268.188 403.986 268.408C404.283 268.628 404.574 268.855 404.859 269.089C405.144 269.323 405.424 269.564 405.697 269.812C405.97 270.06 406.238 270.314 406.499 270.575C406.76 270.836 407.014 271.103 407.262 271.376C407.51 271.65 407.751 271.929 407.985 272.214C408.219 272.5 408.446 272.79 408.666 273.086C408.886 273.383 409.098 273.685 409.303 273.991C409.508 274.298 409.706 274.61 409.895 274.926C410.085 275.242 410.267 275.563 410.441 275.889C410.615 276.215 410.781 276.544 410.939 276.877C411.096 277.211 411.246 277.548 411.387 277.889C411.528 278.23 411.661 278.574 411.786 278.921C411.91 279.269 412.026 279.619 412.133 279.972C412.24 280.325 412.338 280.68 412.428 281.038C412.517 281.396 412.598 281.756 412.671 282.118C412.743 282.48 412.806 282.844 412.86 283.208C412.914 283.573 412.959 283.939 412.995 284.306C413.032 284.674 413.059 285.042 413.077 285.41C413.095 285.779 413.104 286.148 413.104 286.516Z" fill="#00B1EC"/><path d="M625.323 209.055C625.323 209.424 625.314 209.792 625.296 210.161C625.278 210.53 625.251 210.898 625.215 211.265C625.179 211.632 625.133 211.998 625.079 212.363C625.025 212.728 624.962 213.091 624.89 213.453C624.818 213.815 624.737 214.175 624.647 214.533C624.558 214.891 624.46 215.246 624.352 215.599C624.245 215.952 624.129 216.303 624.005 216.65C623.881 216.997 623.748 217.341 623.607 217.682C623.466 218.023 623.316 218.361 623.158 218.694C623 219.027 622.834 219.357 622.66 219.682C622.486 220.007 622.305 220.328 622.115 220.645C621.925 220.962 621.728 221.273 621.523 221.58C621.318 221.887 621.105 222.188 620.885 222.485C620.665 222.781 620.438 223.072 620.204 223.357C619.97 223.642 619.729 223.922 619.481 224.195C619.233 224.468 618.979 224.735 618.718 224.996C618.457 225.257 618.19 225.512 617.916 225.759C617.643 226.007 617.364 226.248 617.078 226.482C616.793 226.716 616.502 226.943 616.205 227.163C615.909 227.383 615.608 227.595 615.3 227.8C614.994 228.005 614.682 228.202 614.365 228.392C614.049 228.581 613.728 228.763 613.402 228.937C613.077 229.111 612.747 229.277 612.413 229.435C612.08 229.593 611.743 229.742 611.402 229.883C611.061 230.024 610.717 230.157 610.369 230.282C610.022 230.406 609.672 230.522 609.318 230.629C608.965 230.736 608.609 230.834 608.251 230.924C607.893 231.013 607.533 231.094 607.171 231.166C606.809 231.238 606.446 231.301 606.08 231.355C605.716 231.41 605.35 231.455 604.982 231.491C604.615 231.527 604.247 231.554 603.878 231.572C603.51 231.59 603.141 231.599 602.771 231.599C602.403 231.599 602.034 231.59 601.665 231.572C601.297 231.554 600.929 231.527 600.561 231.491C600.194 231.455 599.828 231.41 599.462 231.355C599.098 231.301 598.734 231.238 598.372 231.166C598.01 231.094 597.65 231.013 597.292 230.924C596.934 230.834 596.579 230.736 596.225 230.629C595.872 230.522 595.522 230.406 595.174 230.282C594.826 230.157 594.482 230.024 594.141 229.883C593.801 229.742 593.463 229.593 593.129 229.435C592.796 229.277 592.466 229.111 592.14 228.937C591.815 228.763 591.494 228.581 591.177 228.392C590.861 228.202 590.549 228.005 590.242 227.8C589.936 227.595 589.634 227.383 589.337 227.163C589.041 226.943 588.75 226.716 588.465 226.482C588.18 226.248 587.9 226.007 587.626 225.759C587.353 225.512 587.086 225.257 586.825 224.996C586.564 224.735 586.309 224.468 586.061 224.195C585.814 223.922 585.573 223.642 585.338 223.357C585.104 223.072 584.877 222.781 584.657 222.485C584.438 222.188 584.226 221.887 584.02 221.58C583.815 221.273 583.618 220.962 583.428 220.645C583.238 220.328 583.056 220.007 582.882 219.682C582.708 219.357 582.543 219.027 582.385 218.694C582.227 218.361 582.078 218.023 581.936 217.682C581.795 217.341 581.662 216.997 581.538 216.65C581.414 216.303 581.298 215.952 581.19 215.599C581.084 215.246 580.985 214.891 580.895 214.533C580.806 214.175 580.725 213.815 580.653 213.453C580.581 213.091 580.518 212.728 580.463 212.363C580.409 211.998 580.364 211.632 580.328 211.265C580.292 210.898 580.265 210.53 580.247 210.161C580.229 209.792 580.219 209.424 580.219 209.055C580.219 208.686 580.229 208.317 580.247 207.949C580.265 207.58 580.292 207.212 580.328 206.845C580.364 206.478 580.409 206.112 580.463 205.747C580.518 205.382 580.581 205.018 580.653 204.656C580.725 204.295 580.806 203.935 580.895 203.577C580.985 203.219 581.084 202.863 581.19 202.51C581.298 202.157 581.414 201.807 581.538 201.46C581.662 201.113 581.795 200.768 581.936 200.427C582.078 200.086 582.227 199.749 582.385 199.416C582.543 199.082 582.708 198.752 582.882 198.427C583.056 198.102 583.238 197.781 583.428 197.464C583.618 197.148 583.815 196.837 584.02 196.53C584.226 196.223 584.438 195.921 584.657 195.625C584.877 195.328 585.104 195.038 585.338 194.753C585.573 194.468 585.814 194.188 586.061 193.915C586.309 193.642 586.564 193.374 586.825 193.113C587.086 192.852 587.353 192.598 587.626 192.35C587.9 192.103 588.18 191.862 588.465 191.627C588.75 191.393 589.041 191.166 589.337 190.947C589.634 190.727 589.936 190.515 590.242 190.31C590.549 190.105 590.861 189.907 591.177 189.718C591.494 189.528 591.815 189.346 592.14 189.172C592.466 188.998 592.796 188.832 593.129 188.675C593.463 188.517 593.801 188.367 594.141 188.226C594.482 188.085 594.826 187.952 595.174 187.828C595.522 187.703 595.872 187.588 596.225 187.481C596.579 187.374 596.934 187.275 597.292 187.186C597.65 187.096 598.01 187.015 598.372 186.943C598.734 186.871 599.098 186.808 599.462 186.754C599.828 186.7 600.194 186.655 600.561 186.619C600.929 186.582 601.297 186.555 601.665 186.537C602.034 186.519 602.403 186.51 602.771 186.51C603.141 186.51 603.51 186.519 603.878 186.537C604.247 186.555 604.615 186.582 604.982 186.619C605.35 186.655 605.716 186.7 606.08 186.754C606.446 186.808 606.809 186.871 607.171 186.943C607.533 187.015 607.893 187.096 608.251 187.186C608.609 187.275 608.965 187.374 609.318 187.481C609.672 187.588 610.022 187.703 610.369 187.828C610.717 187.952 611.061 188.085 611.402 188.226C611.743 188.367 612.08 188.517 612.413 188.675C612.747 188.832 613.077 188.998 613.402 189.172C613.728 189.346 614.049 189.528 614.365 189.718C614.682 189.907 614.994 190.105 615.3 190.31C615.608 190.515 615.909 190.727 616.205 190.947C616.502 191.166 616.793 191.393 617.078 191.627C617.364 191.862 617.643 192.103 617.916 192.35C618.19 192.598 618.457 192.852 618.718 193.113C618.979 193.374 619.233 193.642 619.481 193.915C619.729 194.188 619.97 194.468 620.204 194.753C620.438 195.038 620.665 195.328 620.885 195.625C621.105 195.921 621.318 196.223 621.523 196.53C621.728 196.837 621.925 197.148 622.115 197.464C622.305 197.781 622.486 198.102 622.66 198.427C622.834 198.752 623 199.082 623.158 199.416C623.316 199.749 623.466 200.086 623.607 200.427C623.748 200.768 623.881 201.113 624.005 201.46C624.129 201.807 624.245 202.157 624.352 202.51C624.46 202.863 624.558 203.219 624.647 203.577C624.737 203.935 624.818 204.295 624.89 204.656C624.962 205.018 625.025 205.382 625.079 205.747C625.133 206.112 625.179 206.478 625.215 206.845C625.251 207.212 625.278 207.58 625.296 207.949C625.314 208.317 625.323 208.686 625.323 209.055Z" fill="#00B1EC"/><path d="M587.737 430.455C587.737 430.824 587.728 431.193 587.71 431.562C587.691 431.93 587.664 432.297 587.628 432.665C587.592 433.032 587.547 433.398 587.493 433.763C587.438 434.128 587.375 434.492 587.303 434.854C587.231 435.215 587.15 435.575 587.061 435.933C586.971 436.291 586.872 436.646 586.766 437C586.659 437.352 586.542 437.702 586.418 438.05C586.294 438.397 586.161 438.741 586.02 439.083C585.879 439.423 585.729 439.76 585.571 440.094C585.414 440.428 585.248 440.757 585.074 441.083C584.9 441.408 584.718 441.729 584.528 442.046C584.339 442.362 584.141 442.673 583.936 442.98C583.731 443.287 583.518 443.589 583.299 443.885C583.079 444.181 582.852 444.472 582.618 444.758C582.383 445.042 582.142 445.321 581.895 445.595C581.647 445.868 581.392 446.135 581.131 446.397C580.87 446.657 580.603 446.912 580.33 447.16C580.056 447.407 579.776 447.648 579.492 447.883C579.207 448.117 578.916 448.343 578.619 448.563C578.322 448.783 578.021 448.995 577.714 449.201C577.407 449.405 577.096 449.603 576.779 449.793C576.462 449.982 576.141 450.164 575.816 450.338C575.49 450.512 575.16 450.677 574.827 450.835C574.493 450.993 574.156 451.142 573.815 451.284C573.474 451.425 573.13 451.558 572.782 451.682C572.435 451.806 572.084 451.922 571.731 452.029C571.378 452.136 571.022 452.234 570.664 452.324C570.306 452.414 569.946 452.495 569.584 452.567C569.222 452.639 568.859 452.702 568.494 452.756C568.129 452.81 567.762 452.855 567.395 452.891C567.028 452.927 566.659 452.955 566.291 452.973C565.922 452.991 565.554 453 565.185 453C564.815 453 564.447 452.991 564.078 452.973C563.709 452.955 563.341 452.927 562.974 452.891C562.607 452.855 562.241 452.81 561.876 452.756C561.51 452.702 561.147 452.639 560.785 452.567C560.423 452.495 560.063 452.414 559.705 452.324C559.347 452.234 558.991 452.136 558.638 452.029C558.284 451.922 557.934 451.806 557.587 451.682C557.24 451.558 556.896 451.425 556.555 451.284C556.214 451.142 555.876 450.993 555.543 450.835C555.209 450.677 554.879 450.512 554.554 450.338C554.229 450.164 553.908 449.982 553.591 449.793C553.274 449.603 552.963 449.405 552.656 449.201C552.349 448.995 552.047 448.783 551.751 448.563C551.454 448.343 551.163 448.117 550.878 447.883C550.593 447.648 550.313 447.407 550.04 447.16C549.766 446.912 549.499 446.657 549.238 446.397C548.977 446.135 548.723 445.868 548.475 445.595C548.227 445.321 547.986 445.042 547.752 444.758C547.518 444.472 547.291 444.181 547.071 443.885C546.851 443.589 546.638 443.287 546.434 442.98C546.228 442.673 546.031 442.362 545.841 442.046C545.651 441.729 545.47 441.408 545.296 441.083C545.122 440.757 544.956 440.428 544.798 440.094C544.64 439.76 544.49 439.423 544.349 439.083C544.208 438.741 544.076 438.397 543.951 438.05C543.827 437.702 543.711 437.352 543.604 437C543.496 436.646 543.398 436.291 543.309 435.933C543.219 435.575 543.138 435.215 543.066 434.854C542.994 434.492 542.931 434.128 542.877 433.763C542.823 433.398 542.778 433.032 542.741 432.665C542.705 432.297 542.678 431.93 542.66 431.562C542.642 431.193 542.633 430.824 542.633 430.455C542.633 430.086 542.642 429.717 542.66 429.349C542.678 428.98 542.705 428.612 542.741 428.246C542.778 427.878 542.823 427.512 542.877 427.147C542.931 426.782 542.994 426.419 543.066 426.057C543.138 425.695 543.219 425.335 543.309 424.977C543.398 424.619 543.496 424.264 543.604 423.911C543.711 423.557 543.827 423.207 543.951 422.86C544.076 422.512 544.208 422.168 544.349 421.828C544.49 421.486 544.64 421.149 544.798 420.816C544.956 420.482 545.122 420.153 545.296 419.828C545.47 419.502 545.651 419.181 545.841 418.865C546.031 418.548 546.228 418.236 546.434 417.93C546.638 417.623 546.851 417.321 547.071 417.025C547.291 416.729 547.518 416.438 547.752 416.153C547.986 415.867 548.227 415.588 548.475 415.315C548.723 415.041 548.977 414.774 549.238 414.514C549.499 414.252 549.766 413.998 550.04 413.751C550.313 413.503 550.593 413.262 550.878 413.028C551.163 412.794 551.454 412.567 551.751 412.347C552.047 412.127 552.349 411.915 552.656 411.71C552.963 411.505 553.274 411.308 553.591 411.118C553.908 410.928 554.229 410.747 554.554 410.573C554.879 410.399 555.209 410.233 555.543 410.075C555.876 409.917 556.214 409.768 556.555 409.627C556.896 409.485 557.24 409.352 557.587 409.228C557.934 409.104 558.284 408.988 558.638 408.881C558.991 408.774 559.347 408.676 559.705 408.586C560.063 408.496 560.423 408.416 560.785 408.344C561.147 408.272 561.51 408.209 561.876 408.155C562.241 408.1 562.607 408.055 562.974 408.019C563.341 407.983 563.709 407.956 564.078 407.938C564.447 407.92 564.815 407.911 565.185 407.911C565.554 407.911 565.922 407.92 566.291 407.938C566.659 407.956 567.028 407.983 567.395 408.019C567.762 408.055 568.129 408.1 568.494 408.155C568.859 408.209 569.222 408.272 569.584 408.344C569.946 408.416 570.306 408.496 570.664 408.586C571.022 408.676 571.378 408.774 571.731 408.881C572.084 408.988 572.435 409.104 572.782 409.228C573.13 409.352 573.474 409.485 573.815 409.627C574.156 409.768 574.493 409.917 574.827 410.075C575.16 410.233 575.49 410.399 575.816 410.573C576.141 410.747 576.462 410.928 576.779 411.118C577.096 411.308 577.407 411.505 577.714 411.71C578.021 411.915 578.322 412.127 578.619 412.347C578.916 412.567 579.207 412.794 579.492 413.028C579.776 413.262 580.056 413.503 580.33 413.751C580.603 413.998 580.87 414.252 581.131 414.514C581.392 414.774 581.647 415.041 581.895 415.315C582.142 415.588 582.383 415.867 582.618 416.153C582.852 416.438 583.079 416.729 583.299 417.025C583.518 417.321 583.731 417.623 583.936 417.93C584.141 418.236 584.339 418.548 584.528 418.865C584.718 419.181 584.9 419.502 585.074 419.828C585.248 420.153 585.414 420.482 585.571 420.816C585.729 421.149 585.879 421.486 586.02 421.828C586.161 422.168 586.294 422.512 586.418 422.86C586.542 423.207 586.659 423.557 586.766 423.911C586.872 424.264 586.971 424.619 587.061 424.977C587.15 425.335 587.231 425.695 587.303 426.057C587.375 426.419 587.438 426.782 587.493 427.147C587.547 427.512 587.592 427.878 587.628 428.246C587.664 428.612 587.691 428.98 587.71 429.349C587.728 429.717 587.737 430.086 587.737 430.455Z" fill="#00B1EC"/><path d="M520.081 405.044C509.256 405.044 498.894 402.939 488.996 398.729C479.445 394.667 470.988 388.936 463.626 381.535C456.266 374.138 450.568 365.645 446.53 356.054C442.348 346.121 440.258 335.725 440.258 324.865C440.258 296.302 464.499 256.532 512.983 205.555C516.513 201.844 522.384 201.696 526.097 205.225C526.198 205.321 526.297 205.419 526.394 205.52C575.401 256.501 599.904 296.283 599.904 324.865C599.904 335.725 597.813 346.121 593.631 356.054C589.594 365.645 583.895 374.138 576.536 381.535C569.173 388.936 560.717 394.667 551.166 398.729C541.267 402.939 530.905 405.044 520.081 405.044ZM520.081 386.498C528.384 386.498 536.324 384.886 543.902 381.663C551.23 378.546 557.723 374.144 563.382 368.457C569.044 362.766 573.427 356.233 576.532 348.86C579.745 341.228 581.352 333.23 581.352 324.865C581.352 302.452 560.815 269.316 519.741 225.456C479.12 269.304 458.81 302.44 458.81 324.865C458.81 333.23 460.416 341.228 463.63 348.86C466.734 356.233 471.118 362.766 476.78 368.457C482.438 374.144 488.931 378.546 496.259 381.663C503.837 384.886 511.777 386.498 520.081 386.498Z" fill-rule="evenodd" fill="#005DA2"/><path d="M470.929 325.888C470.929 300.349 506.914 332.299 533.936 332.299C560.952 332.299 568.654 300.349 568.654 325.888C568.654 351.422 546.808 372.07 519.792 372.07C492.776 372.07 470.929 351.422 470.929 325.888Z" fill-rule="evenodd" fill="#00B1EC"/><path d="M566.02 195.575C551.592 189.708 536.647 186.7 521.186 186.552C506.196 186.409 491.645 188.95 477.534 194.176C463.423 199.401 450.728 206.949 439.449 216.82C427.815 227.001 418.437 239.016 411.315 252.864L411.314 252.863C409.725 255.953 406.541 257.896 403.065 257.896C397.943 257.896 393.79 253.745 393.79 248.624C393.79 247.149 394.142 245.695 394.816 244.384C403.016 228.439 413.82 214.6 427.229 202.866C440.222 191.495 454.843 182.801 471.09 176.784C487.337 170.767 504.095 167.842 521.363 168.007C539.183 168.177 556.399 171.64 573.011 178.396L573.011 178.397C576.506 179.818 578.791 183.214 578.791 186.986C578.791 192.107 574.638 196.258 569.516 196.258C568.318 196.258 567.131 196.026 566.021 195.574L566.02 195.575Z" fill-rule="evenodd" fill="#005DA2"/><path d="M380.745 326.553C380.745 326.977 380.774 327.401 380.832 327.821C383.282 345.58 388.889 362.216 397.652 377.729C406.142 392.761 417.056 405.806 430.393 416.864C443.729 427.921 458.57 436.232 474.918 441.796C491.787 447.537 509.178 449.972 527.09 449.1L527.09 449.099C532.031 448.858 535.914 444.783 535.914 439.837C535.914 434.716 531.761 430.565 526.638 430.565C526.488 430.565 526.337 430.569 526.187 430.576L526.187 430.575C510.631 431.333 495.534 429.221 480.897 424.239C466.706 419.41 453.819 412.193 442.237 402.589C430.654 392.985 421.177 381.659 413.807 368.61C406.204 355.151 401.338 340.709 399.209 325.285L399.208 325.286C398.575 320.698 394.653 317.281 390.02 317.281C384.897 317.281 380.745 321.432 380.745 326.553Z" fill-rule="evenodd" fill="#005DA2"/><path d="M621.472 237.408C621.472 239.19 621.985 240.933 622.95 242.43L622.949 242.431C631.384 255.521 637.103 269.647 640.107 284.81C643.019 299.51 643.21 314.275 640.682 329.105C638.154 343.935 633.08 357.803 625.461 370.709C617.602 384.021 607.524 395.455 595.228 405.012C592.968 406.769 591.646 409.471 591.646 412.333C591.646 417.454 595.798 421.605 600.921 421.605C602.983 421.605 604.986 420.918 606.613 419.653L606.614 419.654C620.773 408.651 632.381 395.478 641.439 380.135C650.215 365.268 656.059 349.296 658.971 332.221C661.882 315.147 661.66 298.142 658.306 281.207C654.844 263.731 648.257 247.458 638.545 232.386L638.544 232.387C636.837 229.737 633.9 228.136 630.747 228.136C625.625 228.136 621.472 232.288 621.472 237.408Z" fill-rule="evenodd" fill="#005DA2"/><path fill="rgba(255, 255, 255, 1)" d="M1241 75L2036 75C2039.31 75 2042 77.6863 2042 81L2042 677C2042 680.314 2039.31 683 2036 683L1241 683C1237.69 683 1235 680.314 1235 677L1235 81C1235 77.6863 1237.69 75 1241 75ZM1241 76C1238.24 76 1236 78.2386 1236 81L1236 677C1236 679.761 1238.24 682 1241 682L2036 682C2038.76 682 2041 679.761 2041 677L2041 81C2041 78.2386 2038.76 76 2036 76L1241 76Z"/><path d="M1354.05 576.066C1354.05 581.313 1353.07 585.916 1351.12 589.876C1349.16 593.836 1346.52 597.141 1343.17 599.79C1339.83 602.439 1335.92 604.432 1331.45 605.769C1326.97 607.106 1322.19 607.774 1317.1 607.774C1313.65 607.774 1310.45 607.491 1307.49 606.926C1304.53 606.36 1301.92 605.678 1299.66 604.881C1297.4 604.084 1295.51 603.249 1293.99 602.374C1292.47 601.499 1291.38 600.728 1290.71 600.06C1290.04 599.392 1289.57 598.427 1289.28 597.167C1289 595.907 1288.86 594.094 1288.86 591.728C1288.86 590.134 1288.91 588.796 1289.01 587.716C1289.12 586.636 1289.28 585.762 1289.52 585.093C1289.75 584.425 1290.06 583.949 1290.44 583.666C1290.83 583.383 1291.28 583.241 1291.79 583.241C1292.51 583.241 1293.53 583.666 1294.84 584.514C1296.15 585.363 1297.84 586.302 1299.89 587.33C1301.95 588.359 1304.41 589.298 1307.26 590.146C1310.11 590.995 1313.42 591.419 1317.17 591.419C1319.64 591.419 1321.85 591.124 1323.81 590.532C1325.76 589.941 1327.42 589.105 1328.78 588.024C1330.15 586.944 1331.19 585.607 1331.91 584.013C1332.63 582.419 1332.99 580.644 1332.99 578.689C1332.99 576.427 1332.37 574.485 1331.14 572.865C1329.9 571.245 1328.3 569.805 1326.32 568.544C1324.34 567.284 1322.09 566.102 1319.57 564.996C1317.05 563.89 1314.45 562.72 1311.77 561.485C1309.1 560.251 1306.5 558.85 1303.98 557.281C1301.46 555.713 1299.21 553.835 1297.23 551.649C1295.25 549.463 1293.64 546.879 1292.41 543.896C1291.17 540.913 1290.56 537.338 1290.56 533.172C1290.56 528.389 1291.44 524.184 1293.22 520.558C1294.99 516.932 1297.39 513.924 1300.39 511.532C1303.4 509.14 1306.95 507.353 1311.04 506.17C1315.13 504.988 1319.46 504.396 1324.04 504.396C1326.41 504.396 1328.77 504.576 1331.14 504.936C1333.5 505.296 1335.71 505.785 1337.77 506.401C1339.83 507.019 1341.66 507.713 1343.25 508.484C1344.84 509.256 1345.9 509.899 1346.41 510.413C1346.93 510.928 1347.27 511.365 1347.45 511.725C1347.64 512.085 1347.79 512.561 1347.92 513.152C1348.05 513.744 1348.14 514.489 1348.19 515.389C1348.24 516.289 1348.26 517.408 1348.26 518.745C1348.26 520.237 1348.23 521.497 1348.15 522.525C1348.07 523.554 1347.94 524.403 1347.76 525.071C1347.58 525.74 1347.33 526.229 1346.99 526.537C1346.66 526.846 1346.21 527 1345.64 527C1345.08 527 1344.18 526.64 1342.94 525.92C1341.71 525.2 1340.19 524.416 1338.39 523.567C1336.59 522.719 1334.51 521.947 1332.14 521.252C1329.77 520.558 1327.18 520.211 1324.35 520.211C1322.14 520.211 1320.21 520.481 1318.56 521.021C1316.92 521.561 1315.54 522.307 1314.44 523.258C1313.33 524.21 1312.51 525.355 1311.97 526.691C1311.43 528.029 1311.16 529.443 1311.16 530.935C1311.16 533.147 1311.76 535.062 1312.97 536.682C1314.18 538.302 1315.8 539.742 1317.83 541.002C1319.86 542.263 1322.16 543.446 1324.73 544.551C1327.31 545.657 1329.93 546.828 1332.6 548.062C1335.28 549.296 1337.9 550.698 1340.47 552.266C1343.04 553.835 1345.33 555.712 1347.34 557.898C1349.34 560.084 1350.96 562.656 1352.2 565.613C1353.43 568.571 1354.05 572.055 1354.05 576.066ZM1387.84 603.377C1387.84 603.891 1387.69 604.341 1387.38 604.727C1387.07 605.113 1386.54 605.434 1385.8 605.691C1385.05 605.948 1384.06 606.141 1382.83 606.27C1381.59 606.399 1380.02 606.463 1378.12 606.463C1376.22 606.463 1374.65 606.399 1373.41 606.27C1372.18 606.141 1371.19 605.948 1370.44 605.691C1369.7 605.434 1369.17 605.113 1368.86 604.727C1368.55 604.341 1368.4 603.891 1368.4 603.377L1368.4 534.715C1368.4 534.201 1368.55 533.751 1368.86 533.365C1369.17 532.979 1369.7 532.645 1370.44 532.362C1371.19 532.08 1372.18 531.861 1373.41 531.706C1374.65 531.552 1376.22 531.475 1378.12 531.475C1380.02 531.475 1381.59 531.552 1382.83 531.706C1384.06 531.861 1385.05 532.08 1385.8 532.362C1386.54 532.645 1387.07 532.979 1387.38 533.365C1387.69 533.751 1387.84 534.201 1387.84 534.715L1387.84 603.377ZM1389.31 511.262C1389.31 515.171 1388.51 517.871 1386.92 519.362C1385.32 520.854 1382.36 521.6 1378.04 521.6C1373.67 521.6 1370.73 520.88 1369.21 519.439C1367.69 517.999 1366.93 515.402 1366.93 511.647C1366.93 507.739 1367.72 505.026 1369.29 503.508C1370.86 501.991 1373.83 501.232 1378.2 501.232C1382.52 501.232 1385.45 501.965 1386.99 503.431C1388.54 504.897 1389.31 507.508 1389.31 511.262ZM1516.68 603.377C1516.68 603.891 1516.53 604.341 1516.22 604.727C1515.91 605.113 1515.39 605.434 1514.67 605.691C1513.95 605.948 1512.98 606.141 1511.74 606.27C1510.51 606.399 1508.94 606.463 1507.04 606.463C1505.08 606.463 1503.49 606.399 1502.25 606.27C1501.02 606.141 1500.03 605.948 1499.28 605.691C1498.54 605.434 1498.02 605.113 1497.74 604.727C1497.46 604.341 1497.32 603.891 1497.32 603.377L1497.32 562.565C1497.32 560.251 1497.1 558.143 1496.66 556.239C1496.22 554.337 1495.55 552.704 1494.65 551.34C1493.75 549.978 1492.62 548.923 1491.26 548.177C1489.9 547.432 1488.26 547.059 1486.36 547.059C1484.05 547.059 1481.71 547.959 1479.34 549.759C1476.97 551.559 1474.4 554.182 1471.63 557.628L1471.63 603.377C1471.63 603.891 1471.47 604.341 1471.16 604.727C1470.85 605.113 1470.33 605.434 1469.58 605.691C1468.84 605.948 1467.84 606.141 1466.61 606.27C1465.38 606.399 1463.83 606.463 1461.98 606.463C1460.08 606.463 1458.51 606.399 1457.28 606.27C1456.04 606.141 1455.05 605.948 1454.31 605.691C1453.56 605.434 1453.03 605.113 1452.72 604.727C1452.42 604.341 1452.26 603.891 1452.26 603.377L1452.26 562.565C1452.26 560.251 1452.04 558.143 1451.61 556.239C1451.17 554.337 1450.51 552.704 1449.64 551.34C1448.76 549.978 1447.63 548.923 1446.24 548.177C1444.85 547.432 1443.23 547.059 1441.38 547.059C1439.02 547.059 1436.65 547.959 1434.29 549.759C1431.92 551.559 1429.37 554.182 1426.65 557.628L1426.65 603.377C1426.65 603.891 1426.49 604.341 1426.19 604.727C1425.88 605.113 1425.35 605.434 1424.6 605.691C1423.86 605.948 1422.87 606.141 1421.63 606.27C1420.4 606.399 1418.83 606.463 1416.93 606.463C1415.02 606.463 1413.46 606.399 1412.22 606.27C1410.99 606.141 1410 605.948 1409.25 605.691C1408.5 605.434 1407.98 605.113 1407.67 604.727C1407.36 604.341 1407.21 603.891 1407.21 603.377L1407.21 534.561C1407.21 534.047 1407.33 533.596 1407.59 533.21C1407.85 532.825 1408.31 532.504 1408.98 532.246C1409.65 531.989 1410.51 531.796 1411.57 531.667C1412.62 531.539 1413.94 531.475 1415.54 531.475C1417.18 531.475 1418.55 531.539 1419.63 531.667C1420.71 531.796 1421.54 531.989 1422.13 532.246C1422.73 532.504 1423.15 532.825 1423.41 533.21C1423.66 533.596 1423.79 534.047 1423.79 534.561L1423.79 542.507C1427.6 538.393 1431.39 535.307 1435.17 533.249C1438.95 531.192 1442.9 530.163 1447.02 530.163C1449.84 530.163 1452.39 530.459 1454.65 531.05C1456.92 531.642 1458.93 532.491 1460.71 533.596C1462.48 534.702 1464.01 536.027 1465.3 537.569C1466.59 539.113 1467.67 540.836 1468.54 542.738C1470.6 540.527 1472.62 538.624 1474.6 537.029C1476.58 535.435 1478.53 534.137 1480.46 533.133C1482.39 532.131 1484.32 531.385 1486.25 530.896C1488.17 530.408 1490.14 530.163 1492.15 530.163C1496.72 530.163 1500.58 530.935 1503.72 532.478C1506.86 534.021 1509.39 536.117 1511.32 538.765C1513.25 541.414 1514.62 544.513 1515.45 548.062C1516.27 551.611 1516.68 555.365 1516.68 559.325L1516.68 603.377ZM1601 603.377C1601 603.891 1600.87 604.341 1600.62 604.727C1600.36 605.113 1599.91 605.434 1599.27 605.691C1598.62 605.948 1597.78 606.141 1596.72 606.27C1595.67 606.399 1594.34 606.463 1592.75 606.463C1591.05 606.463 1589.68 606.399 1588.62 606.27C1587.57 606.141 1586.73 605.948 1586.11 605.691C1585.5 605.434 1585.06 605.113 1584.8 604.727C1584.54 604.341 1584.42 603.891 1584.42 603.377L1584.42 595.431C1580.61 599.546 1576.74 602.631 1572.81 604.688C1568.87 606.745 1564.79 607.774 1560.58 607.774C1555.85 607.774 1551.87 607.003 1548.66 605.46C1545.44 603.917 1542.85 601.809 1540.87 599.134C1538.89 596.46 1537.47 593.361 1536.62 589.837C1535.77 586.315 1535.35 581.93 1535.35 576.684L1535.35 534.561C1535.35 534.047 1535.49 533.596 1535.77 533.21C1536.06 532.825 1536.57 532.504 1537.32 532.246C1538.06 531.989 1539.07 531.796 1540.33 531.667C1541.59 531.539 1543.14 531.475 1544.99 531.475C1546.9 531.475 1548.47 531.539 1549.7 531.667C1550.93 531.796 1551.92 531.989 1552.67 532.246C1553.42 532.504 1553.94 532.825 1554.25 533.21C1554.56 533.596 1554.71 534.047 1554.71 534.561L1554.71 573.443C1554.71 577.044 1554.95 579.796 1555.41 581.698C1555.87 583.602 1556.58 585.235 1557.53 586.597C1558.48 587.961 1559.69 589.015 1561.16 589.76C1562.62 590.506 1564.33 590.879 1566.29 590.879C1568.75 590.879 1571.24 589.979 1573.73 588.179C1576.23 586.379 1578.89 583.756 1581.72 580.31L1581.72 534.561C1581.72 534.047 1581.86 533.596 1582.14 533.21C1582.42 532.825 1582.94 532.504 1583.68 532.246C1584.43 531.989 1585.42 531.796 1586.65 531.667C1587.89 531.539 1589.46 531.475 1591.36 531.475C1593.26 531.475 1594.83 531.539 1596.07 531.667C1597.3 531.796 1598.28 531.989 1599 532.246C1599.72 532.504 1600.23 532.825 1600.54 533.21C1600.85 533.596 1601 534.047 1601 534.561L1601 603.377ZM1725.83 534.406C1725.83 534.972 1725.75 535.667 1725.6 536.489C1725.44 537.313 1725.16 538.496 1724.75 540.038L1706.39 602.297C1706.13 603.171 1705.8 603.878 1705.39 604.418C1704.97 604.959 1704.34 605.383 1703.5 605.691C1702.65 606 1701.44 606.206 1699.87 606.309C1698.3 606.412 1696.26 606.463 1693.74 606.463C1691.22 606.463 1689.16 606.399 1687.56 606.27C1685.97 606.141 1684.72 605.923 1683.82 605.614C1682.92 605.305 1682.27 604.881 1681.85 604.341C1681.44 603.801 1681.13 603.12 1680.93 602.297L1669.36 560.482L1669.2 559.788L1669.05 560.482L1658.4 602.297C1658.2 603.171 1657.9 603.878 1657.51 604.418C1657.13 604.959 1656.47 605.383 1655.55 605.691C1654.62 606 1653.36 606.206 1651.77 606.309C1650.17 606.412 1648.12 606.463 1645.6 606.463C1643.02 606.463 1640.95 606.399 1639.38 606.27C1637.82 606.141 1636.58 605.923 1635.68 605.614C1634.78 605.305 1634.13 604.881 1633.71 604.341C1633.3 603.801 1632.99 603.12 1632.79 602.297L1614.58 540.038C1614.12 538.547 1613.82 537.377 1613.69 536.528C1613.57 535.68 1613.5 534.972 1613.5 534.406C1613.5 533.892 1613.64 533.442 1613.93 533.056C1614.21 532.671 1614.72 532.362 1615.47 532.13C1616.21 531.899 1617.22 531.732 1618.48 531.629C1619.74 531.527 1621.32 531.475 1623.22 531.475C1625.28 531.475 1626.95 531.527 1628.24 531.629C1629.52 531.732 1630.53 531.912 1631.25 532.169C1631.97 532.427 1632.47 532.774 1632.75 533.21C1633.03 533.648 1633.25 534.175 1633.41 534.792L1647.06 585.324L1647.22 586.25L1647.37 585.324L1660.18 534.792C1660.33 534.175 1660.57 533.648 1660.91 533.21C1661.24 532.774 1661.74 532.427 1662.41 532.169C1663.08 531.912 1664.02 531.732 1665.23 531.629C1666.44 531.527 1667.99 531.475 1669.9 531.475C1671.8 531.475 1673.34 531.539 1674.53 531.667C1675.71 531.796 1676.65 531.976 1677.34 532.208C1678.04 532.44 1678.52 532.748 1678.81 533.133C1679.09 533.519 1679.31 533.969 1679.46 534.483L1693.2 585.401L1693.43 586.25L1693.58 585.324L1706.7 534.792C1706.8 534.175 1707.01 533.648 1707.31 533.21C1707.62 532.774 1708.14 532.427 1708.86 532.169C1709.58 531.912 1710.55 531.732 1711.79 531.629C1713.02 531.527 1714.59 531.475 1716.49 531.475C1718.4 531.475 1719.95 531.527 1721.16 531.629C1722.37 531.732 1723.32 531.899 1724.02 532.13C1724.71 532.362 1725.19 532.671 1725.44 533.056C1725.7 533.442 1725.83 533.892 1725.83 534.406ZM1795.19 603.608C1795.19 604.328 1794.93 604.894 1794.41 605.306C1793.9 605.717 1793.09 606.013 1791.98 606.193C1790.88 606.373 1789.25 606.463 1787.09 606.463C1784.77 606.463 1783.09 606.373 1782.03 606.193C1780.98 606.013 1780.23 605.717 1779.79 605.306C1779.36 604.894 1779.14 604.328 1779.14 603.608L1779.14 598.131C1776.31 601.166 1773.08 603.532 1769.46 605.229C1765.83 606.926 1761.81 607.774 1757.38 607.774C1753.73 607.774 1750.38 607.298 1747.32 606.347C1744.26 605.396 1741.61 603.981 1739.37 602.104C1737.13 600.227 1735.4 597.9 1734.16 595.122C1732.93 592.345 1732.31 589.105 1732.31 585.401C1732.31 581.39 1733.09 577.906 1734.66 574.948C1736.23 571.991 1738.57 569.548 1741.68 567.619C1744.8 565.691 1748.67 564.263 1753.29 563.337C1757.92 562.411 1763.3 561.948 1769.42 561.948L1776.13 561.948L1776.13 557.782C1776.13 555.622 1775.91 553.732 1775.47 552.112C1775.04 550.492 1774.32 549.142 1773.31 548.062C1772.31 546.982 1770.97 546.184 1769.3 545.67C1767.63 545.156 1765.56 544.898 1763.09 544.898C1759.85 544.898 1756.96 545.259 1754.41 545.979C1751.87 546.699 1749.62 547.496 1747.66 548.37C1745.71 549.245 1744.07 550.042 1742.76 550.762C1741.45 551.482 1740.38 551.842 1739.56 551.842C1739 551.842 1738.49 551.662 1738.06 551.302C1737.62 550.942 1737.26 550.428 1736.98 549.759C1736.69 549.091 1736.48 548.268 1736.32 547.29C1736.17 546.313 1736.09 545.233 1736.09 544.05C1736.09 542.456 1736.22 541.196 1736.48 540.27C1736.73 539.344 1737.22 538.508 1737.94 537.762C1738.66 537.017 1739.92 536.194 1741.72 535.293C1743.52 534.393 1745.63 533.558 1748.05 532.786C1750.47 532.015 1753.1 531.385 1755.96 530.896C1758.81 530.408 1761.75 530.163 1764.79 530.163C1770.19 530.163 1774.81 530.691 1778.64 531.745C1782.47 532.799 1785.62 534.419 1788.09 536.605C1790.56 538.791 1792.36 541.607 1793.49 545.053C1794.62 548.499 1795.19 552.588 1795.19 557.319L1795.19 603.608ZM1776.13 574.138L1768.72 574.138C1765.59 574.138 1762.91 574.37 1760.7 574.832C1758.49 575.295 1756.69 575.989 1755.3 576.915C1753.91 577.841 1752.9 578.96 1752.25 580.271C1751.61 581.583 1751.29 583.087 1751.29 584.784C1751.29 587.664 1752.2 589.927 1754.03 591.573C1755.85 593.219 1758.39 594.042 1761.63 594.042C1764.35 594.042 1766.86 593.348 1769.15 591.959C1771.44 590.571 1773.76 588.539 1776.13 585.864L1776.13 574.138ZM1853.82 596.588C1853.82 598.851 1853.68 600.587 1853.39 601.795C1853.11 603.004 1852.74 603.852 1852.28 604.341C1851.81 604.83 1851.13 605.267 1850.23 605.653C1849.33 606.038 1848.28 606.373 1847.07 606.656C1845.86 606.939 1844.55 607.157 1843.13 607.312C1841.72 607.466 1840.29 607.543 1838.85 607.543C1834.99 607.543 1831.65 607.054 1828.82 606.077C1825.99 605.1 1823.65 603.595 1821.8 601.564C1819.95 599.533 1818.59 596.974 1817.71 593.888C1816.84 590.802 1816.4 587.151 1816.4 582.933L1816.4 547.676L1808.15 547.676C1807.17 547.676 1806.42 547.072 1805.91 545.863C1805.4 544.655 1805.14 542.636 1805.14 539.807C1805.14 538.315 1805.2 537.055 1805.33 536.026C1805.46 534.998 1805.65 534.188 1805.91 533.596C1806.17 533.005 1806.49 532.581 1806.87 532.323C1807.26 532.067 1807.71 531.938 1808.22 531.938L1816.4 531.938L1816.4 516.585C1816.4 516.071 1816.54 515.608 1816.83 515.196C1817.11 514.785 1817.62 514.438 1818.37 514.155C1819.11 513.872 1820.12 513.666 1821.38 513.538C1822.64 513.41 1824.19 513.345 1826.05 513.345C1827.95 513.345 1829.53 513.41 1830.79 513.538C1832.05 513.666 1833.04 513.872 1833.76 514.155C1834.48 514.438 1834.99 514.785 1835.3 515.196C1835.61 515.608 1835.77 516.071 1835.77 516.585L1835.77 531.938L1850.73 531.938C1851.25 531.938 1851.7 532.067 1852.08 532.323C1852.47 532.581 1852.79 533.005 1853.05 533.596C1853.3 534.188 1853.5 534.998 1853.63 536.026C1853.75 537.055 1853.82 538.315 1853.82 539.807C1853.82 542.636 1853.56 544.655 1853.05 545.863C1852.53 547.072 1851.79 547.676 1850.81 547.676L1835.77 547.676L1835.77 580.001C1835.77 583.756 1836.36 586.572 1837.54 588.449C1838.72 590.327 1840.83 591.265 1843.87 591.265C1844.89 591.265 1845.82 591.175 1846.64 590.995C1847.47 590.815 1848.2 590.609 1848.84 590.377C1849.49 590.146 1850.03 589.94 1850.46 589.76C1850.9 589.58 1851.3 589.49 1851.66 589.49C1851.97 589.49 1852.26 589.58 1852.55 589.76C1852.83 589.94 1853.05 590.3 1853.2 590.84C1853.36 591.38 1853.5 592.113 1853.63 593.039C1853.75 593.965 1853.82 595.148 1853.82 596.588ZM1929.5 566.963C1929.5 569.329 1928.97 571.078 1927.92 572.209C1926.87 573.341 1925.41 573.906 1923.56 573.906L1881.67 573.906C1881.67 576.838 1882.02 579.5 1882.71 581.891C1883.4 584.283 1884.51 586.315 1886.03 587.986C1887.55 589.658 1889.5 590.931 1891.89 591.805C1894.28 592.679 1897.15 593.116 1900.49 593.116C1903.89 593.116 1906.87 592.872 1909.44 592.383C1912.01 591.895 1914.24 591.355 1916.12 590.763C1917.99 590.172 1919.55 589.632 1920.78 589.143C1922.02 588.655 1923.02 588.41 1923.79 588.41C1924.25 588.41 1924.64 588.5 1924.95 588.68C1925.26 588.86 1925.52 589.182 1925.72 589.645C1925.93 590.108 1926.07 590.764 1926.15 591.612C1926.22 592.461 1926.26 593.528 1926.26 594.813C1926.26 595.945 1926.24 596.91 1926.18 597.707C1926.13 598.504 1926.05 599.185 1925.95 599.751C1925.85 600.317 1925.7 600.793 1925.49 601.178C1925.28 601.564 1925.01 601.937 1924.68 602.297C1924.35 602.657 1923.43 603.146 1921.94 603.763C1920.45 604.38 1918.55 604.984 1916.23 605.576C1913.92 606.167 1911.27 606.682 1908.29 607.119C1905.3 607.556 1902.11 607.774 1898.72 607.774C1892.6 607.774 1887.24 607.003 1882.63 605.46C1878.03 603.917 1874.19 601.577 1871.1 598.439C1868.01 595.302 1865.71 591.342 1864.2 586.559C1862.68 581.776 1861.92 576.17 1861.92 569.74C1861.92 563.62 1862.72 558.104 1864.31 553.192C1865.91 548.28 1868.22 544.114 1871.25 540.694C1874.29 537.274 1877.98 534.663 1882.33 532.863C1886.67 531.063 1891.57 530.163 1897.02 530.163C1902.78 530.163 1907.71 531.012 1911.8 532.709C1915.88 534.407 1919.24 536.76 1921.86 539.768C1924.49 542.777 1926.42 546.339 1927.65 550.453C1928.88 554.568 1929.5 559.043 1929.5 563.877L1929.5 566.963ZM1910.68 561.408C1910.83 555.956 1909.74 551.675 1907.4 548.563C1905.06 545.452 1901.45 543.896 1896.56 543.896C1894.09 543.896 1891.94 544.359 1890.12 545.284C1888.29 546.21 1886.77 547.458 1885.57 549.026C1884.36 550.595 1883.43 552.447 1882.79 554.581C1882.14 556.715 1881.77 558.991 1881.67 561.408L1910.68 561.408ZM1989.68 540.964C1989.68 542.816 1989.63 544.333 1989.52 545.516C1989.42 546.699 1989.27 547.625 1989.06 548.293C1988.85 548.962 1988.58 549.425 1988.25 549.682C1987.92 549.939 1987.49 550.067 1986.98 550.067C1986.57 550.067 1986.1 549.977 1985.59 549.797C1985.07 549.617 1984.49 549.425 1983.85 549.219C1983.21 549.013 1982.5 548.82 1981.73 548.64C1980.96 548.46 1980.11 548.37 1979.19 548.37C1978.1 548.37 1977.02 548.589 1975.94 549.026C1974.86 549.464 1973.75 550.145 1972.59 551.07C1971.43 551.996 1970.22 553.231 1968.96 554.773C1967.7 556.317 1966.35 558.22 1964.91 560.482L1964.91 603.377C1964.91 603.891 1964.76 604.341 1964.45 604.727C1964.14 605.113 1963.61 605.434 1962.87 605.691C1962.12 605.948 1961.13 606.141 1959.9 606.27C1958.66 606.399 1957.09 606.463 1955.19 606.463C1953.29 606.463 1951.72 606.399 1950.49 606.27C1949.25 606.141 1948.26 605.948 1947.52 605.691C1946.77 605.434 1946.24 605.113 1945.93 604.727C1945.63 604.341 1945.47 603.891 1945.47 603.377L1945.47 534.561C1945.47 534.047 1945.6 533.596 1945.86 533.21C1946.11 532.825 1946.58 532.504 1947.25 532.246C1947.91 531.989 1948.78 531.796 1949.83 531.667C1950.88 531.539 1952.21 531.475 1953.8 531.475C1955.45 531.475 1956.81 531.539 1957.89 531.667C1958.97 531.796 1959.81 531.989 1960.4 532.246C1960.99 532.504 1961.41 532.825 1961.67 533.21C1961.93 533.596 1962.06 534.047 1962.06 534.561L1962.06 543.124C1963.86 540.553 1965.56 538.431 1967.15 536.759C1968.74 535.088 1970.26 533.764 1971.7 532.786C1973.14 531.809 1974.58 531.128 1976.02 530.742C1977.46 530.356 1978.9 530.163 1980.34 530.163C1981.01 530.163 1981.73 530.202 1982.5 530.279C1983.27 530.357 1984.07 530.485 1984.89 530.665C1985.72 530.845 1986.44 531.051 1987.05 531.282C1987.67 531.514 1988.12 531.758 1988.4 532.015C1988.69 532.272 1988.89 532.555 1989.02 532.863C1989.15 533.172 1989.27 533.596 1989.37 534.136C1989.47 534.676 1989.55 535.486 1989.6 536.566C1989.65 537.647 1989.68 539.113 1989.68 540.964Z" fill="#FFFFFF"/><path d="M1537.1 286.516C1537.1 286.885 1537.09 287.254 1537.08 287.622C1537.06 287.991 1537.03 288.359 1536.99 288.726C1536.96 289.094 1536.91 289.46 1536.86 289.824C1536.81 290.189 1536.74 290.552 1536.67 290.914C1536.6 291.276 1536.52 291.636 1536.43 291.994C1536.34 292.352 1536.24 292.708 1536.13 293.06C1536.03 293.414 1535.91 293.764 1535.79 294.111C1535.66 294.459 1535.53 294.803 1535.39 295.144C1535.25 295.485 1535.1 295.822 1534.94 296.155C1534.78 296.489 1534.61 296.818 1534.44 297.144C1534.27 297.47 1534.08 297.79 1533.9 298.106C1533.71 298.423 1533.51 298.735 1533.3 299.041C1533.1 299.348 1532.89 299.65 1532.67 299.946C1532.45 300.242 1532.22 300.533 1531.98 300.818C1531.75 301.104 1531.51 301.383 1531.26 301.656C1531.01 301.93 1530.76 302.197 1530.5 302.458C1530.24 302.719 1529.97 302.973 1529.7 303.221C1529.42 303.469 1529.14 303.709 1528.86 303.943C1528.57 304.177 1528.28 304.404 1527.99 304.624C1527.69 304.844 1527.39 305.057 1527.08 305.261C1526.77 305.467 1526.46 305.664 1526.15 305.853C1525.83 306.043 1525.51 306.225 1525.18 306.399C1524.86 306.573 1524.53 306.739 1524.19 306.896C1523.86 307.054 1523.52 307.204 1523.18 307.345C1522.84 307.486 1522.5 307.619 1522.15 307.743C1521.8 307.867 1521.45 307.983 1521.1 308.09C1520.75 308.198 1520.39 308.296 1520.03 308.385C1519.67 308.475 1519.31 308.556 1518.95 308.628C1518.59 308.7 1518.23 308.763 1517.86 308.817C1517.5 308.871 1517.13 308.916 1516.76 308.952C1516.39 308.988 1516.03 309.016 1515.66 309.034C1515.29 309.052 1514.92 309.061 1514.55 309.061C1514.18 309.061 1513.81 309.052 1513.44 309.034C1513.08 309.016 1512.71 308.988 1512.34 308.952C1511.97 308.916 1511.61 308.871 1511.24 308.817C1510.88 308.763 1510.51 308.7 1510.15 308.628C1509.79 308.556 1509.43 308.475 1509.07 308.385C1508.71 308.296 1508.36 308.198 1508.01 308.09C1507.65 307.983 1507.3 307.867 1506.95 307.743C1506.61 307.619 1506.26 307.486 1505.92 307.345C1505.58 307.204 1505.24 307.054 1504.91 306.896C1504.58 306.739 1504.25 306.573 1503.92 306.399C1503.6 306.225 1503.27 306.043 1502.96 305.853C1502.64 305.664 1502.33 305.467 1502.02 305.261C1501.72 305.057 1501.41 304.844 1501.12 304.624C1500.82 304.404 1500.53 304.177 1500.24 303.943C1499.96 303.709 1499.68 303.469 1499.41 303.221C1499.13 302.973 1498.87 302.719 1498.6 302.458C1498.34 302.197 1498.09 301.93 1497.84 301.656C1497.59 301.383 1497.35 301.104 1497.12 300.818C1496.89 300.533 1496.66 300.242 1496.44 299.946C1496.22 299.65 1496.01 299.348 1495.8 299.041C1495.6 298.735 1495.4 298.423 1495.21 298.106C1495.02 297.79 1494.84 297.47 1494.66 297.144C1494.49 296.818 1494.32 296.489 1494.17 296.155C1494.01 295.822 1493.86 295.485 1493.72 295.144C1493.58 294.803 1493.44 294.459 1493.32 294.111C1493.19 293.764 1493.08 293.414 1492.97 293.06C1492.86 292.708 1492.77 292.352 1492.68 291.994C1492.59 291.636 1492.51 291.276 1492.43 290.914C1492.36 290.552 1492.3 290.189 1492.24 289.824C1492.19 289.46 1492.15 289.094 1492.11 288.726C1492.07 288.359 1492.05 287.991 1492.03 287.622C1492.01 287.254 1492 286.885 1492 286.516C1492 286.148 1492.01 285.779 1492.03 285.41C1492.05 285.042 1492.07 284.674 1492.11 284.306C1492.15 283.939 1492.19 283.573 1492.24 283.208C1492.3 282.844 1492.36 282.48 1492.43 282.118C1492.51 281.756 1492.59 281.396 1492.68 281.038C1492.77 280.68 1492.86 280.325 1492.97 279.972C1493.08 279.619 1493.19 279.269 1493.32 278.921C1493.44 278.574 1493.58 278.23 1493.72 277.889C1493.86 277.548 1494.01 277.211 1494.17 276.877C1494.32 276.544 1494.49 276.215 1494.66 275.889C1494.84 275.563 1495.02 275.242 1495.21 274.926C1495.4 274.61 1495.6 274.298 1495.8 273.991C1496.01 273.685 1496.22 273.383 1496.44 273.086C1496.66 272.79 1496.89 272.5 1497.12 272.214C1497.35 271.929 1497.59 271.65 1497.84 271.376C1498.09 271.103 1498.34 270.836 1498.6 270.575C1498.87 270.314 1499.13 270.06 1499.41 269.812C1499.68 269.564 1499.96 269.323 1500.24 269.089C1500.53 268.855 1500.82 268.628 1501.12 268.408C1501.41 268.188 1501.72 267.976 1502.02 267.771C1502.33 267.566 1502.64 267.369 1502.96 267.179C1503.27 266.989 1503.6 266.807 1503.92 266.633C1504.25 266.459 1504.58 266.294 1504.91 266.136C1505.24 265.978 1505.58 265.829 1505.92 265.687C1506.26 265.547 1506.61 265.414 1506.95 265.289C1507.3 265.165 1507.65 265.05 1508.01 264.942C1508.36 264.835 1508.71 264.737 1509.07 264.647C1509.43 264.557 1509.79 264.477 1510.15 264.405C1510.51 264.333 1510.88 264.27 1511.24 264.215C1511.61 264.161 1511.97 264.116 1512.34 264.08C1512.71 264.044 1513.08 264.017 1513.44 263.998C1513.81 263.98 1514.18 263.971 1514.55 263.971C1514.92 263.971 1515.29 263.98 1515.66 263.998C1516.03 264.017 1516.39 264.044 1516.76 264.08C1517.13 264.116 1517.5 264.161 1517.86 264.215C1518.23 264.27 1518.59 264.333 1518.95 264.405C1519.31 264.477 1519.67 264.557 1520.03 264.647C1520.39 264.737 1520.75 264.835 1521.1 264.942C1521.45 265.05 1521.8 265.165 1522.15 265.289C1522.5 265.414 1522.84 265.547 1523.18 265.687C1523.52 265.829 1523.86 265.978 1524.19 266.136C1524.53 266.294 1524.86 266.459 1525.18 266.633C1525.51 266.807 1525.83 266.989 1526.15 267.179C1526.46 267.369 1526.77 267.566 1527.08 267.771C1527.39 267.976 1527.69 268.188 1527.99 268.408C1528.28 268.628 1528.57 268.855 1528.86 269.089C1529.14 269.323 1529.42 269.564 1529.7 269.812C1529.97 270.06 1530.24 270.314 1530.5 270.575C1530.76 270.836 1531.01 271.103 1531.26 271.376C1531.51 271.65 1531.75 271.929 1531.98 272.214C1532.22 272.5 1532.45 272.79 1532.67 273.086C1532.89 273.383 1533.1 273.685 1533.3 273.991C1533.51 274.298 1533.71 274.61 1533.9 274.926C1534.08 275.242 1534.27 275.563 1534.44 275.889C1534.61 276.215 1534.78 276.544 1534.94 276.877C1535.1 277.211 1535.25 277.548 1535.39 277.889C1535.53 278.23 1535.66 278.574 1535.79 278.921C1535.91 279.269 1536.03 279.619 1536.13 279.972C1536.24 280.325 1536.34 280.68 1536.43 281.038C1536.52 281.396 1536.6 281.756 1536.67 282.118C1536.74 282.48 1536.81 282.844 1536.86 283.208C1536.91 283.573 1536.96 283.939 1536.99 284.306C1537.03 284.674 1537.06 285.042 1537.08 285.41C1537.09 285.779 1537.1 286.148 1537.1 286.516Z" fill="#FFFFFF"/><path d="M1749.32 209.055C1749.32 209.424 1749.31 209.792 1749.3 210.161C1749.28 210.53 1749.25 210.898 1749.22 211.265C1749.18 211.632 1749.13 211.998 1749.08 212.363C1749.03 212.728 1748.96 213.091 1748.89 213.453C1748.82 213.815 1748.74 214.175 1748.65 214.533C1748.56 214.891 1748.46 215.246 1748.35 215.599C1748.25 215.952 1748.13 216.303 1748.01 216.65C1747.88 216.997 1747.75 217.341 1747.61 217.682C1747.47 218.023 1747.32 218.361 1747.16 218.694C1747 219.027 1746.83 219.357 1746.66 219.682C1746.49 220.007 1746.3 220.328 1746.12 220.645C1745.93 220.962 1745.73 221.273 1745.52 221.58C1745.32 221.887 1745.11 222.188 1744.89 222.485C1744.67 222.781 1744.44 223.072 1744.2 223.357C1743.97 223.642 1743.73 223.922 1743.48 224.195C1743.23 224.468 1742.98 224.735 1742.72 224.996C1742.46 225.257 1742.19 225.512 1741.92 225.759C1741.64 226.007 1741.36 226.248 1741.08 226.482C1740.79 226.716 1740.5 226.943 1740.21 227.163C1739.91 227.383 1739.61 227.595 1739.3 227.8C1738.99 228.005 1738.68 228.202 1738.37 228.392C1738.05 228.581 1737.73 228.763 1737.4 228.937C1737.08 229.111 1736.75 229.277 1736.41 229.435C1736.08 229.593 1735.74 229.742 1735.4 229.883C1735.06 230.024 1734.72 230.157 1734.37 230.282C1734.02 230.406 1733.67 230.522 1733.32 230.629C1732.97 230.736 1732.61 230.834 1732.25 230.924C1731.89 231.013 1731.53 231.094 1731.17 231.166C1730.81 231.238 1730.45 231.301 1730.08 231.355C1729.72 231.41 1729.35 231.455 1728.98 231.491C1728.62 231.527 1728.25 231.554 1727.88 231.572C1727.51 231.59 1727.14 231.599 1726.77 231.599C1726.4 231.599 1726.03 231.59 1725.67 231.572C1725.3 231.554 1724.93 231.527 1724.56 231.491C1724.19 231.455 1723.83 231.41 1723.46 231.355C1723.1 231.301 1722.73 231.238 1722.37 231.166C1722.01 231.094 1721.65 231.013 1721.29 230.924C1720.93 230.834 1720.58 230.736 1720.23 230.629C1719.87 230.522 1719.52 230.406 1719.17 230.282C1718.83 230.157 1718.48 230.024 1718.14 229.883C1717.8 229.742 1717.46 229.593 1717.13 229.435C1716.8 229.277 1716.47 229.111 1716.14 228.937C1715.82 228.763 1715.49 228.581 1715.18 228.392C1714.86 228.202 1714.55 228.005 1714.24 227.8C1713.94 227.595 1713.63 227.383 1713.34 227.163C1713.04 226.943 1712.75 226.716 1712.47 226.482C1712.18 226.248 1711.9 226.007 1711.63 225.759C1711.35 225.512 1711.09 225.257 1710.83 224.996C1710.56 224.735 1710.31 224.468 1710.06 224.195C1709.81 223.922 1709.57 223.642 1709.34 223.357C1709.1 223.072 1708.88 222.781 1708.66 222.485C1708.44 222.188 1708.23 221.887 1708.02 221.58C1707.82 221.273 1707.62 220.962 1707.43 220.645C1707.24 220.328 1707.06 220.007 1706.88 219.682C1706.71 219.357 1706.54 219.027 1706.39 218.694C1706.23 218.361 1706.08 218.023 1705.94 217.682C1705.8 217.341 1705.66 216.997 1705.54 216.65C1705.41 216.303 1705.3 215.952 1705.19 215.599C1705.08 215.246 1704.99 214.891 1704.9 214.533C1704.81 214.175 1704.73 213.815 1704.65 213.453C1704.58 213.091 1704.52 212.728 1704.46 212.363C1704.41 211.998 1704.36 211.632 1704.33 211.265C1704.29 210.898 1704.27 210.53 1704.25 210.161C1704.23 209.792 1704.22 209.424 1704.22 209.055C1704.22 208.686 1704.23 208.317 1704.25 207.949C1704.27 207.58 1704.29 207.212 1704.33 206.845C1704.36 206.478 1704.41 206.112 1704.46 205.747C1704.52 205.382 1704.58 205.018 1704.65 204.656C1704.73 204.295 1704.81 203.935 1704.9 203.577C1704.99 203.219 1705.08 202.863 1705.19 202.51C1705.3 202.157 1705.41 201.807 1705.54 201.46C1705.66 201.113 1705.8 200.768 1705.94 200.427C1706.08 200.086 1706.23 199.749 1706.39 199.416C1706.54 199.082 1706.71 198.752 1706.88 198.427C1707.06 198.102 1707.24 197.781 1707.43 197.464C1707.62 197.148 1707.82 196.837 1708.02 196.53C1708.23 196.223 1708.44 195.921 1708.66 195.625C1708.88 195.328 1709.1 195.038 1709.34 194.753C1709.57 194.468 1709.81 194.188 1710.06 193.915C1710.31 193.642 1710.56 193.374 1710.83 193.113C1711.09 192.852 1711.35 192.598 1711.63 192.35C1711.9 192.103 1712.18 191.862 1712.47 191.627C1712.75 191.393 1713.04 191.166 1713.34 190.947C1713.63 190.727 1713.94 190.515 1714.24 190.31C1714.55 190.105 1714.86 189.907 1715.18 189.718C1715.49 189.528 1715.82 189.346 1716.14 189.172C1716.47 188.998 1716.8 188.832 1717.13 188.675C1717.46 188.517 1717.8 188.367 1718.14 188.226C1718.48 188.085 1718.83 187.952 1719.17 187.828C1719.52 187.703 1719.87 187.588 1720.23 187.481C1720.58 187.374 1720.93 187.275 1721.29 187.186C1721.65 187.096 1722.01 187.015 1722.37 186.943C1722.73 186.871 1723.1 186.808 1723.46 186.754C1723.83 186.7 1724.19 186.655 1724.56 186.619C1724.93 186.582 1725.3 186.555 1725.67 186.537C1726.03 186.519 1726.4 186.51 1726.77 186.51C1727.14 186.51 1727.51 186.519 1727.88 186.537C1728.25 186.555 1728.62 186.582 1728.98 186.619C1729.35 186.655 1729.72 186.7 1730.08 186.754C1730.45 186.808 1730.81 186.871 1731.17 186.943C1731.53 187.015 1731.89 187.096 1732.25 187.186C1732.61 187.275 1732.97 187.374 1733.32 187.481C1733.67 187.588 1734.02 187.703 1734.37 187.828C1734.72 187.952 1735.06 188.085 1735.4 188.226C1735.74 188.367 1736.08 188.517 1736.41 188.675C1736.75 188.832 1737.08 188.998 1737.4 189.172C1737.73 189.346 1738.05 189.528 1738.37 189.718C1738.68 189.907 1738.99 190.105 1739.3 190.31C1739.61 190.515 1739.91 190.727 1740.21 190.947C1740.5 191.166 1740.79 191.393 1741.08 191.627C1741.36 191.862 1741.64 192.103 1741.92 192.35C1742.19 192.598 1742.46 192.852 1742.72 193.113C1742.98 193.374 1743.23 193.642 1743.48 193.915C1743.73 194.188 1743.97 194.468 1744.2 194.753C1744.44 195.038 1744.67 195.328 1744.89 195.625C1745.11 195.921 1745.32 196.223 1745.52 196.53C1745.73 196.837 1745.93 197.148 1746.12 197.464C1746.3 197.781 1746.49 198.102 1746.66 198.427C1746.83 198.752 1747 199.082 1747.16 199.416C1747.32 199.749 1747.47 200.086 1747.61 200.427C1747.75 200.768 1747.88 201.113 1748.01 201.46C1748.13 201.807 1748.25 202.157 1748.35 202.51C1748.46 202.863 1748.56 203.219 1748.65 203.577C1748.74 203.935 1748.82 204.295 1748.89 204.656C1748.96 205.018 1749.03 205.382 1749.08 205.747C1749.13 206.112 1749.18 206.478 1749.22 206.845C1749.25 207.212 1749.28 207.58 1749.3 207.949C1749.31 208.317 1749.32 208.686 1749.32 209.055Z" fill="#FFFFFF"/><path d="M1711.74 430.455C1711.74 430.824 1711.73 431.193 1711.71 431.562C1711.69 431.93 1711.66 432.297 1711.63 432.665C1711.59 433.032 1711.55 433.398 1711.49 433.763C1711.44 434.128 1711.37 434.492 1711.3 434.854C1711.23 435.215 1711.15 435.575 1711.06 435.933C1710.97 436.291 1710.87 436.646 1710.77 437C1710.66 437.352 1710.54 437.702 1710.42 438.05C1710.29 438.397 1710.16 438.741 1710.02 439.083C1709.88 439.423 1709.73 439.76 1709.57 440.094C1709.41 440.428 1709.25 440.757 1709.07 441.083C1708.9 441.408 1708.72 441.729 1708.53 442.046C1708.34 442.362 1708.14 442.673 1707.94 442.98C1707.73 443.287 1707.52 443.589 1707.3 443.885C1707.08 444.181 1706.85 444.472 1706.62 444.758C1706.38 445.042 1706.14 445.321 1705.89 445.595C1705.65 445.868 1705.39 446.135 1705.13 446.397C1704.87 446.657 1704.6 446.912 1704.33 447.16C1704.06 447.407 1703.78 447.648 1703.49 447.883C1703.21 448.117 1702.92 448.343 1702.62 448.563C1702.32 448.783 1702.02 448.995 1701.71 449.201C1701.41 449.405 1701.1 449.603 1700.78 449.793C1700.46 449.982 1700.14 450.164 1699.82 450.338C1699.49 450.512 1699.16 450.677 1698.83 450.835C1698.49 450.993 1698.16 451.142 1697.81 451.284C1697.47 451.425 1697.13 451.558 1696.78 451.682C1696.43 451.806 1696.08 451.922 1695.73 452.029C1695.38 452.136 1695.02 452.234 1694.66 452.324C1694.31 452.414 1693.95 452.495 1693.58 452.567C1693.22 452.639 1692.86 452.702 1692.49 452.756C1692.13 452.81 1691.76 452.855 1691.39 452.891C1691.03 452.927 1690.66 452.955 1690.29 452.973C1689.92 452.991 1689.55 453 1689.18 453C1688.82 453 1688.45 452.991 1688.08 452.973C1687.71 452.955 1687.34 452.927 1686.97 452.891C1686.61 452.855 1686.24 452.81 1685.88 452.756C1685.51 452.702 1685.15 452.639 1684.78 452.567C1684.42 452.495 1684.06 452.414 1683.7 452.324C1683.35 452.234 1682.99 452.136 1682.64 452.029C1682.28 451.922 1681.93 451.806 1681.59 451.682C1681.24 451.558 1680.9 451.425 1680.55 451.284C1680.21 451.142 1679.88 450.993 1679.54 450.835C1679.21 450.677 1678.88 450.512 1678.55 450.338C1678.23 450.164 1677.91 449.982 1677.59 449.793C1677.27 449.603 1676.96 449.405 1676.66 449.201C1676.35 448.995 1676.05 448.783 1675.75 448.563C1675.45 448.343 1675.16 448.117 1674.88 447.883C1674.59 447.648 1674.31 447.407 1674.04 447.16C1673.77 446.912 1673.5 446.657 1673.24 446.397C1672.98 446.135 1672.72 445.868 1672.47 445.595C1672.23 445.321 1671.99 445.042 1671.75 444.758C1671.52 444.472 1671.29 444.181 1671.07 443.885C1670.85 443.589 1670.64 443.287 1670.43 442.98C1670.23 442.673 1670.03 442.362 1669.84 442.046C1669.65 441.729 1669.47 441.408 1669.3 441.083C1669.12 440.757 1668.96 440.428 1668.8 440.094C1668.64 439.76 1668.49 439.423 1668.35 439.083C1668.21 438.741 1668.08 438.397 1667.95 438.05C1667.83 437.702 1667.71 437.352 1667.6 437C1667.5 436.646 1667.4 436.291 1667.31 435.933C1667.22 435.575 1667.14 435.215 1667.07 434.854C1666.99 434.492 1666.93 434.128 1666.88 433.763C1666.82 433.398 1666.78 433.032 1666.74 432.665C1666.7 432.297 1666.68 431.93 1666.66 431.562C1666.64 431.193 1666.63 430.824 1666.63 430.455C1666.63 430.086 1666.64 429.717 1666.66 429.349C1666.68 428.98 1666.7 428.612 1666.74 428.246C1666.78 427.878 1666.82 427.512 1666.88 427.147C1666.93 426.782 1666.99 426.419 1667.07 426.057C1667.14 425.695 1667.22 425.335 1667.31 424.977C1667.4 424.619 1667.5 424.264 1667.6 423.911C1667.71 423.557 1667.83 423.207 1667.95 422.86C1668.08 422.512 1668.21 422.168 1668.35 421.828C1668.49 421.486 1668.64 421.149 1668.8 420.816C1668.96 420.482 1669.12 420.153 1669.3 419.828C1669.47 419.502 1669.65 419.181 1669.84 418.865C1670.03 418.548 1670.23 418.236 1670.43 417.93C1670.64 417.623 1670.85 417.321 1671.07 417.025C1671.29 416.729 1671.52 416.438 1671.75 416.153C1671.99 415.867 1672.23 415.588 1672.47 415.315C1672.72 415.041 1672.98 414.774 1673.24 414.514C1673.5 414.252 1673.77 413.998 1674.04 413.751C1674.31 413.503 1674.59 413.262 1674.88 413.028C1675.16 412.794 1675.45 412.567 1675.75 412.347C1676.05 412.127 1676.35 411.915 1676.66 411.71C1676.96 411.505 1677.27 411.308 1677.59 411.118C1677.91 410.928 1678.23 410.747 1678.55 410.573C1678.88 410.399 1679.21 410.233 1679.54 410.075C1679.88 409.917 1680.21 409.768 1680.55 409.627C1680.9 409.485 1681.24 409.352 1681.59 409.228C1681.93 409.104 1682.28 408.988 1682.64 408.881C1682.99 408.774 1683.35 408.676 1683.7 408.586C1684.06 408.496 1684.42 408.416 1684.78 408.344C1685.15 408.272 1685.51 408.209 1685.88 408.155C1686.24 408.1 1686.61 408.055 1686.97 408.019C1687.34 407.983 1687.71 407.956 1688.08 407.938C1688.45 407.92 1688.82 407.911 1689.18 407.911C1689.55 407.911 1689.92 407.92 1690.29 407.938C1690.66 407.956 1691.03 407.983 1691.39 408.019C1691.76 408.055 1692.13 408.1 1692.49 408.155C1692.86 408.209 1693.22 408.272 1693.58 408.344C1693.95 408.416 1694.31 408.496 1694.66 408.586C1695.02 408.676 1695.38 408.774 1695.73 408.881C1696.08 408.988 1696.43 409.104 1696.78 409.228C1697.13 409.352 1697.47 409.485 1697.81 409.627C1698.16 409.768 1698.49 409.917 1698.83 410.075C1699.16 410.233 1699.49 410.399 1699.82 410.573C1700.14 410.747 1700.46 410.928 1700.78 411.118C1701.1 411.308 1701.41 411.505 1701.71 411.71C1702.02 411.915 1702.32 412.127 1702.62 412.347C1702.92 412.567 1703.21 412.794 1703.49 413.028C1703.78 413.262 1704.06 413.503 1704.33 413.751C1704.6 413.998 1704.87 414.252 1705.13 414.514C1705.39 414.774 1705.65 415.041 1705.89 415.315C1706.14 415.588 1706.38 415.867 1706.62 416.153C1706.85 416.438 1707.08 416.729 1707.3 417.025C1707.52 417.321 1707.73 417.623 1707.94 417.93C1708.14 418.236 1708.34 418.548 1708.53 418.865C1708.72 419.181 1708.9 419.502 1709.07 419.828C1709.25 420.153 1709.41 420.482 1709.57 420.816C1709.73 421.149 1709.88 421.486 1710.02 421.828C1710.16 422.168 1710.29 422.512 1710.42 422.86C1710.54 423.207 1710.66 423.557 1710.77 423.911C1710.87 424.264 1710.97 424.619 1711.06 424.977C1711.15 425.335 1711.23 425.695 1711.3 426.057C1711.37 426.419 1711.44 426.782 1711.49 427.147C1711.55 427.512 1711.59 427.878 1711.63 428.246C1711.66 428.612 1711.69 428.98 1711.71 429.349C1711.73 429.717 1711.74 430.086 1711.74 430.455Z" fill="#FFFFFF"/><path d="M1644.08 405.044C1633.26 405.044 1622.89 402.939 1613 398.729C1603.44 394.667 1594.99 388.936 1587.63 381.535C1580.27 374.138 1574.57 365.645 1570.53 356.054C1566.35 346.121 1564.26 335.725 1564.26 324.865C1564.26 296.302 1588.5 256.532 1636.98 205.555C1640.51 201.844 1646.38 201.696 1650.1 205.225C1650.2 205.321 1650.3 205.419 1650.39 205.52C1699.4 256.501 1723.9 296.283 1723.9 324.865C1723.9 335.725 1721.81 346.121 1717.63 356.054C1713.59 365.645 1707.89 374.138 1700.54 381.535C1693.17 388.936 1684.72 394.667 1675.17 398.729C1665.27 402.939 1654.91 405.044 1644.08 405.044ZM1644.08 386.498C1652.38 386.498 1660.32 384.886 1667.9 381.663C1675.23 378.546 1681.72 374.144 1687.38 368.457C1693.04 362.766 1697.43 356.233 1700.53 348.86C1703.74 341.228 1705.35 333.23 1705.35 324.865C1705.35 302.452 1684.81 269.316 1643.74 225.456C1603.12 269.304 1582.81 302.44 1582.81 324.865C1582.81 333.23 1584.42 341.228 1587.63 348.86C1590.73 356.233 1595.12 362.766 1600.78 368.457C1606.44 374.144 1612.93 378.546 1620.26 381.663C1627.84 384.886 1635.78 386.498 1644.08 386.498Z" fill-rule="evenodd" fill="#FFFFFF"/><path d="M1594.93 325.888C1594.93 300.349 1630.91 332.299 1657.94 332.299C1684.95 332.299 1692.65 300.349 1692.65 325.888C1692.65 351.422 1670.81 372.07 1643.79 372.07C1616.78 372.07 1594.93 351.422 1594.93 325.888Z" fill-rule="evenodd" fill="#FFFFFF"/><path d="M1690.02 195.575C1675.59 189.708 1660.65 186.7 1645.19 186.552C1630.2 186.409 1615.65 188.95 1601.53 194.176C1587.42 199.401 1574.73 206.949 1563.45 216.82C1551.82 227.001 1542.44 239.016 1535.32 252.864L1535.31 252.863C1533.73 255.953 1530.54 257.896 1527.07 257.896C1521.94 257.896 1517.79 253.745 1517.79 248.624C1517.79 247.149 1518.14 245.695 1518.82 244.384C1527.02 228.439 1537.82 214.6 1551.23 202.866C1564.22 191.495 1578.84 182.801 1595.09 176.784C1611.34 170.767 1628.1 167.842 1645.36 168.007C1663.18 168.177 1680.4 171.64 1697.01 178.396L1697.01 178.397C1700.51 179.818 1702.79 183.214 1702.79 186.986C1702.79 192.107 1698.64 196.258 1693.52 196.258C1692.32 196.258 1691.13 196.026 1690.02 195.574L1690.02 195.575Z" fill-rule="evenodd" fill="#FFFFFF"/><path d="M1504.74 326.553C1504.74 326.977 1504.77 327.401 1504.83 327.821C1507.28 345.58 1512.89 362.216 1521.65 377.729C1530.14 392.761 1541.06 405.806 1554.39 416.864C1567.73 427.921 1582.57 436.232 1598.92 441.796C1615.79 447.537 1633.18 449.972 1651.09 449.1L1651.09 449.099C1656.03 448.858 1659.91 444.783 1659.91 439.837C1659.91 434.716 1655.76 430.565 1650.64 430.565C1650.49 430.565 1650.34 430.569 1650.19 430.576L1650.19 430.575C1634.63 431.333 1619.53 429.221 1604.9 424.239C1590.71 419.41 1577.82 412.193 1566.24 402.589C1554.65 392.985 1545.18 381.659 1537.81 368.61C1530.2 355.151 1525.34 340.709 1523.21 325.285L1523.21 325.286C1522.57 320.698 1518.65 317.281 1514.02 317.281C1508.9 317.281 1504.74 321.432 1504.74 326.553Z" fill-rule="evenodd" fill="#FFFFFF"/><path d="M1745.47 237.408C1745.47 239.19 1745.98 240.933 1746.95 242.43L1746.95 242.431C1755.38 255.521 1761.1 269.647 1764.11 284.81C1767.02 299.51 1767.21 314.275 1764.68 329.105C1762.15 343.935 1757.08 357.803 1749.46 370.709C1741.6 384.021 1731.52 395.455 1719.23 405.012C1716.97 406.769 1715.65 409.471 1715.65 412.333C1715.65 417.454 1719.8 421.605 1724.92 421.605C1726.98 421.605 1728.99 420.918 1730.61 419.653L1730.61 419.654C1744.77 408.651 1756.38 395.478 1765.44 380.135C1774.22 365.268 1780.06 349.296 1782.97 332.221C1785.88 315.147 1785.66 298.142 1782.31 281.207C1778.84 263.731 1772.26 247.458 1762.54 232.386L1762.54 232.387C1760.84 229.737 1757.9 228.136 1754.75 228.136C1749.62 228.136 1745.47 232.288 1745.47 237.408Z" fill-rule="evenodd" fill="#FFFFFF"/><defs><linearGradient id="linear_fill_4_1_0" x1="1043.11995" y1="379" x2="2147" y2="379" gradientUnits="userSpaceOnUse"><stop offset="0" stop-color="#FFFFFF"/><stop offset="0.01" stop-color="#000000"/><stop offset="1" stop-color="#000000"/></linearGradient></defs></svg>