<svg xmlns="http://www.w3.org/2000/svg" xmlns:xlink="http://www.w3.org/1999/xlink" width="1888.8970336914062" height="161.80224609375" viewBox="0 0 1888.8970336914062 161.80224609375" fill="none"><path d="M267.069 7.52979L258.459 23.7014L311.929 23.7014L311.929 58.5938L334.449 58.5938L334.449 23.7014L387.339 23.7014L396.979 7.52979L267.069 7.52979Z"   fill="#C7000B" ></path><path d="M424.093 23.7012L519.633 23.7012L519.633 7.52954L411.413 7.52954C405.863 7.48932 401.343 11.9932 401.313 17.575L401.313 48.548C401.343 54.1299 405.863 58.6337 411.413 58.5935L519.633 58.5935L519.633 42.4824L425.133 42.4824C421.633 42.4824 420.793 41.6359 420.793 38.1801L420.793 26.8951C420.793 24.4871 421.633 23.7012 424.093 23.7012Z"   fill="#C7000B" ></path><path d="M153.54 23.7012L249.14 23.7012L249.14 7.52954L140.85 7.52954C135.311 7.48932 130.791 11.9932 130.75 17.575L130.75 48.548C130.791 54.1299 135.311 58.6337 140.85 58.5935L249.14 58.5935L249.14 42.4824L154.571 42.4824C151.081 42.4824 150.24 41.6359 150.24 38.1801L150.24 26.8951C150.24 24.4871 151.081 23.7012 153.54 23.7012Z"   fill="#C7000B" ></path><path d="M19.55 38.1797L19.55 26.8947C19.55 24.4867 20.39 23.7008 22.79 23.7008L114.18 23.7008L123.38 7.52918L10.17 7.52918C4.59998 7.4587 0.0400391 11.9625 0 17.5747L0 48.5476C0.0400391 54.1598 4.59998 58.6637 10.17 58.5932L118.33 58.5932L118.33 42.482L23.8201 42.482C20.3301 42.482 19.55 41.6356 19.55 38.1797Z"   fill="#C7000B" ></path><path d="M455.618 77.3784L402.348 80.7033L402.348 87.2929L421.508 86.1241L421.508 98.9002L400.738 98.9002L400.738 105.49L421.508 105.49L421.508 115.404L409.858 115.404L399.048 153.43L410.698 153.43L421.508 117.883L421.508 160.08L440.668 160.08L440.668 119.838L449.018 133.601L461.638 133.601L450.638 115.404L440.668 115.404L440.668 105.49L458.988 105.49L458.988 98.9002L440.668 98.9002L440.668 84.9453L455.618 84.0284L455.618 77.3784Z"   fill="#595757" ></path><path d="M493.096 77.3784L512.256 77.3784L512.256 138.558L519.696 138.095L519.696 144.684L512.256 145.138L512.256 160.08L493.096 160.08L493.096 146.377L458.986 148.473L458.986 141.883L493.096 139.727L493.096 77.3784Z"   fill="#595757" ></path><path d="M462.287 110.444L472.317 127.008L488.957 127.008L478.927 110.444L462.287 110.444Z"   fill="#595757" ></path><path d="M462.287 85.6611L472.317 102.226L488.957 102.226L478.927 85.6611L462.287 85.6611Z"   fill="#595757" ></path><path d="M161.433 92.3135L221.363 92.3135L221.363 98.9031L201.363 98.9031L201.363 113.775L219.683 113.775L219.683 120.364L201.363 120.364L201.363 138.561L212.753 138.561L208.873 129.493L219.683 129.493L226.353 145.141L159.813 145.141L159.813 138.561L181.433 138.561L181.433 120.364L163.113 120.364L163.113 113.775L181.433 113.775L181.433 98.9031L161.433 98.9031L161.433 92.3135Z"   fill="#595757" ></path><path d="M133.987 77.3784L133.987 160.08L232.177 160.08C240.977 159.556 248.057 152.614 248.817 143.778L248.817 77.3784L133.987 77.3784ZM228.877 153.43L153.987 153.43L153.987 84.0284L228.877 84.0284L228.877 153.43Z"   fill="#595757" ></path><path d="M69.0701 84.0278L69.0701 77.5088L47.4501 77.5088L47.4501 84.0278L0 84.0278L0 153.43L47.4501 153.43L47.4501 159.949L69.0701 159.949L69.0701 153.43L99.88 153.43C108.62 152.885 115.67 146.034 116.51 137.248L116.51 84.0278L69.0701 84.0278ZM47.4501 146.84L20.01 146.84L20.01 90.6173L47.4501 90.6173L47.4501 146.84ZM96.51 146.84L69.0701 146.84L69.0701 90.6173L96.51 90.6173L96.51 146.84Z"   fill="#595757" ></path><path d="M364.289 117.097C371.649 116.533 377.379 110.447 377.559 103.011L383.389 103.011L383.389 95.5751L377.559 95.5751L377.559 82.5372L344.869 82.5372L344.869 77.5799L324.869 77.5799L324.869 82.5372L299.569 82.5372L299.569 89.0562L324.489 89.0562L324.489 96.4921L293.089 96.4921L293.089 103.011L324.679 103.011L324.679 110.447L299.569 110.447L299.569 116.966L324.489 116.966L324.489 124.402L296.199 124.402L296.199 130.921L324.489 130.921L324.489 138.558L296.199 138.558L296.199 143.778L291.219 141.621L291.219 105.49L286.619 105.49L293.089 77.3784L265.579 77.3784L265.579 83.9075L273.669 83.9075L266.169 112.009L272.639 112.009L272.639 133.732L264.349 130.145L264.349 138.558L271.989 141.883L264.349 160.08L284.289 160.08L288.429 148.926L314.319 160.08L372.579 160.08C377.629 160.08 382.549 158.377 382.549 153.551L344.869 153.551L344.869 145.138L378.149 145.138L378.149 138.619L344.869 138.619L344.869 131.123L378.149 131.123L378.149 124.604L344.869 124.604L344.869 117.097L364.289 117.097ZM344.869 88.9857L357.819 88.9857L357.819 96.4215L344.869 96.4215L344.869 88.9857ZM344.869 103.011L357.819 103.011L357.819 110.447L344.869 110.447L344.869 103.011ZM324.869 153.43L318.399 153.43L298.979 145.138L324.289 145.138L324.869 153.43Z"   fill="#595757" ></path><path d="M735.638 161.64L735.698 7.00781L699.648 7.00781L699.708 104.904L658.678 41.0538L617.638 104.904L617.638 7.00781L582.228 7.00781L582.228 161.64L614.918 161.64L658.678 98.0525L702.428 161.64L735.638 161.64Z"   fill="#005DA2" ></path><path d="M705.724 88.1396L674.334 88.1396L674.334 117.037L692.585 117.037C672.174 137.954 637.904 134.992 621.334 110.871C604.754 86.7491 614.064 53.3883 640.694 41.499C667.314 29.6197 698.094 45.0859 704.695 73.6607L735.695 73.6607C730.354 13.8309 664.384 -19.4191 613.664 12.1584C562.944 43.7459 562.944 118.065 613.664 149.642C664.384 181.22 730.354 147.98 735.695 88.1396L705.724 88.1396Z"   fill="#00B1EC" ></path><path     fill="#FFFFFF"  d="M626.694 129.942L626.694 140.38L631.544 133.075C631.774 132.662 632.144 132.36 632.583 132.229C633.333 132.068 634.074 132.572 634.203 133.337C634.234 133.801 634.104 134.274 633.814 134.637L627.343 144.229C626.634 145.338 625.784 145.529 624.944 144.945C624.724 144.824 624.544 144.642 624.424 144.421C624.254 144.239 624.144 144.018 624.104 143.776C624.064 143.534 624.064 143.292 624.104 143.05L624.104 142.204L624.104 131.897L619.314 139.071C619.114 139.474 618.764 139.786 618.344 139.927C618.004 140.118 617.583 140.118 617.244 139.927C616.934 139.705 616.734 139.383 616.664 139.01C616.614 138.536 616.754 138.073 617.054 137.71L623.524 128.31C623.714 127.977 623.974 127.685 624.304 127.463C624.594 127.373 624.914 127.373 625.203 127.463C625.524 127.362 625.864 127.362 626.174 127.463C626.384 127.604 626.554 127.786 626.694 127.987C626.734 128.158 626.734 128.34 626.694 128.511C626.734 128.773 626.734 129.035 626.694 129.297L626.694 130.143"></path><path     fill="#FFFFFF"  d="M652.193 149.444C652.093 149.938 651.873 150.412 651.553 150.815C651.173 151.359 650.693 151.832 650.123 152.185C649.473 152.588 648.743 152.88 647.993 153.031C647.113 153.213 646.213 153.213 645.333 153.031C644.623 152.89 643.923 152.669 643.263 152.376C642.723 152.104 642.213 151.752 641.773 151.328C641.303 150.905 640.913 150.402 640.613 149.827C640.343 149.273 640.143 148.679 640.023 148.074C639.933 147.449 639.933 146.804 640.023 146.18C639.963 145.485 639.963 144.789 640.023 144.094C640.243 143.036 640.643 142.019 641.193 141.092C641.723 140.296 642.403 139.611 643.203 139.066C643.943 138.553 644.773 138.2 645.663 138.029C646.603 137.837 647.563 137.837 648.503 138.029C649.573 138.25 650.563 138.724 651.423 139.399C652.143 139.963 652.723 140.709 653.103 141.545C653.313 142.25 653.313 142.996 653.103 143.701C653.033 144.034 652.813 144.326 652.523 144.487C652.233 144.618 651.903 144.618 651.613 144.487C651.303 144.447 651.023 144.275 650.833 144.024C650.663 143.701 650.533 143.349 650.453 142.986C650.253 142.28 649.893 141.636 649.413 141.092C648.943 140.588 648.333 140.255 647.663 140.114C646.543 139.842 645.363 140.134 644.493 140.9C643.503 141.857 642.843 143.117 642.613 144.487C642.423 145.454 642.423 146.452 642.613 147.419C642.723 148.155 643.063 148.84 643.583 149.374C644.083 149.908 644.743 150.261 645.463 150.351C646.203 150.583 646.993 150.583 647.733 150.351C648.423 149.999 649.003 149.454 649.413 148.79C649.613 148.497 649.833 148.215 650.063 147.943C650.373 147.802 650.723 147.802 651.033 147.943C651.363 148.014 651.643 148.225 651.803 148.528C651.943 148.84 651.943 149.192 651.803 149.505"></path><path     fill="#FFFFFF"  d="M668.969 150.945L664.949 142.139L666.769 152.185C666.939 152.598 666.939 153.071 666.769 153.484C666.579 153.817 666.239 154.039 665.859 154.069C665.529 154.22 665.149 154.22 664.829 154.069C664.499 153.756 664.299 153.343 664.239 152.9L662.039 141.162C661.829 140.729 661.829 140.225 662.039 139.792C662.419 139.489 662.859 139.288 663.339 139.197L664.239 139.197C664.629 139.106 665.029 139.106 665.409 139.197C665.659 139.247 665.889 139.388 666.059 139.59C666.299 139.963 666.519 140.356 666.699 140.769L670.259 148.336L670.909 140.053C670.859 139.59 670.859 139.137 670.909 138.683C670.999 138.421 671.159 138.2 671.359 138.028C671.729 137.857 672.119 137.746 672.529 137.706L673.429 137.706C673.878 137.565 674.349 137.565 674.789 137.706C675.229 137.968 675.519 138.431 675.569 138.945L677.638 150.351C677.819 150.794 677.819 151.288 677.638 151.721C677.449 152.054 677.109 152.265 676.739 152.306C676.409 152.467 676.029 152.467 675.699 152.306C675.378 151.993 675.169 151.58 675.119 151.137L673.239 141.162L672.849 150.291C672.849 150.875 672.849 151.399 672.849 151.661C672.839 151.983 672.699 152.286 672.458 152.507C672.229 152.82 671.879 153.031 671.489 153.091C671.199 153.192 670.879 153.192 670.589 153.091C670.339 152.991 670.119 152.84 669.939 152.638C669.749 152.427 669.599 152.185 669.489 151.923L669.099 151.066"></path><path     fill="#FFFFFF"  d="M692.33 130.339L686.64 133.926L688.58 136.989L693.76 133.664C694.1 133.564 694.46 133.564 694.79 133.664C695.1 133.715 695.37 133.906 695.51 134.188C695.66 134.45 695.66 134.773 695.51 135.035C695.42 135.397 695.19 135.71 694.86 135.881L689.62 139.145L691.82 142.672L697.71 139.014C698.01 138.803 698.37 138.682 698.74 138.692C699.07 138.763 699.36 138.974 699.52 139.276C699.68 139.559 699.68 139.911 699.52 140.193C699.4 140.556 699.15 140.858 698.81 141.04L692.01 145.342C691.59 145.624 691.09 145.765 690.59 145.735C690.12 145.544 689.73 145.201 689.49 144.758L683.66 135.367C683.44 135.085 683.31 134.742 683.27 134.38C683.14 134.118 683.14 133.805 683.27 133.533C683.47 133.231 683.74 132.989 684.05 132.818L690.52 128.647C690.83 128.435 691.19 128.324 691.56 128.314C691.87 128.385 692.15 128.576 692.33 128.838C692.42 129.14 692.42 129.453 692.33 129.755C692.22 130.118 691.96 130.43 691.62 130.601"></path><path d="M904.244 37.0109L904.244 118.463L884.054 118.463L884.054 110.312L847.414 110.312L847.414 161.245L826.964 161.245L826.964 110.312L790.524 110.312L790.524 119.249L771.104 119.249L771.104 37.0109L826.964 37.0109L826.964 8.76855L847.414 8.76855L847.414 37.0109L904.244 37.0109ZM826.964 56.1145L790.524 56.1145L790.524 91.1984L826.964 91.1984L826.964 56.1145ZM884.054 56.1145L847.414 56.1145L847.414 91.1984L884.054 91.1984L884.054 56.1145Z"   fill="#005DA2" ></path><path d="M1059.54 15.1602L1059.54 161.249L1038.95 161.249L1038.95 153.037L943.088 153.037L943.088 161.249L923.668 161.249L923.668 15.1602L1059.54 15.1602ZM1038.95 32.9036L943.088 32.9036L943.088 135.102L1038.95 135.102L1038.95 32.9036ZM1033.32 109.792L1033.32 125.641L949.178 125.641L949.178 109.792L981.538 109.792L981.538 90.5571L954.808 90.5571L954.808 74.2544L981.538 74.2544L981.538 58.9897L950.788 58.9897L950.788 41.9011L1030.99 41.9011L1030.99 58.9897L1000.05 58.9897L1000.05 74.3754L1027.37 74.3754L1027.37 90.688L1018.05 90.688C1022.43 95.2423 1026.5 100.099 1030.21 105.227L1021.74 109.923L1033.32 109.792ZM999.788 109.792L1015.97 109.792C1012.61 104.824 1008.93 100.079 1004.97 95.5747L1014.81 90.5571L999.788 90.5571L999.788 109.792Z"   fill="#005DA2" ></path><path d="M1161.8 49.7247L1161.8 68.0525L1213.97 68.0525L1213.97 123.026C1213.97 132.678 1212.03 138.029 1205.23 140.961C1196.05 143.953 1186.36 145.061 1176.75 144.225C1175.5 137.575 1173.32 131.147 1170.28 125.111C1178.37 125.635 1187.88 125.635 1190.34 125.504C1192.8 125.373 1193.9 124.85 1193.9 122.703L1193.9 86.9647L1161.54 86.9647L1161.54 160.397L1141.47 160.397L1141.47 86.9647L1111.5 86.9647L1111.5 144.225L1092.08 144.225L1092.08 68.0525L1141.47 68.0525L1141.47 49.7247L1078.43 49.7247L1078.43 30.8124L1143.15 30.8124C1140.76 24.9383 1137.65 18.2177 1134.87 12.8776L1154.29 6.81201C1158.3 14.3083 1163.67 24.0919 1166.39 30.8124L1226.2 30.8124L1226.2 49.7247L1161.8 49.7247Z"   fill="#005DA2" ></path><path d="M1384.59 56.4371C1382.01 78.3215 1375.66 99.5713 1365.82 119.249C1373.61 130.111 1384.04 138.786 1396.11 144.418C1391 149.285 1386.64 154.887 1383.17 161.054C1371.81 155.038 1361.9 146.585 1354.17 136.267C1344.95 146.867 1333.7 155.472 1321.09 161.577C1318.29 155.381 1314.65 149.607 1310.28 144.418C1323.26 138.978 1334.64 130.262 1343.29 119.118C1337.64 107.642 1333.18 95.6015 1330.02 83.1781C1328.28 85.959 1326.39 88.6391 1324.33 91.1984C1321.58 88.0649 1318.62 85.1226 1315.46 82.4023L1315.46 83.8329L1296.95 83.8329L1296.95 117.295L1319.8 112.398L1321.42 130.202C1294.89 136.398 1266.2 142.595 1245.43 147.361L1242.06 127.793L1250.47 126.292L1250.47 56.568L1267.82 56.568L1267.82 123.028L1278.18 121.073L1278.18 37.0109L1245.81 37.0109L1245.81 18.4212L1320.06 18.4212L1320.06 37.0109L1297.01 37.0109L1297.01 65.5052L1315.53 65.5052L1315.53 69.5456C1326 50.7946 1332.69 30.1393 1335.2 8.76855L1354.62 11.7006C1353.14 20.7285 1351.18 29.6758 1348.8 38.5021L1394.82 38.5021L1394.82 56.4371L1384.59 56.4371ZM1342 58.5327C1344.53 72.669 1348.65 86.4829 1354.3 99.6822C1359.9 85.8481 1363.56 71.2988 1365.17 56.4371L1342.78 56.4371L1342 58.5327Z"   fill="#005DA2" ></path><path d="M1437.8 54.8211C1433.3 58.8212 1428.54 62.5291 1423.56 65.9044C1419.22 60.7053 1414.62 55.7481 1409.77 51.0326C1427.69 40.6747 1442.83 26.0548 1453.85 8.44238L1471.97 14.9715C1467.5 22.1555 1462.48 28.9869 1456.96 35.385L1456.96 92.1921L1437.54 92.1921L1437.8 54.8211ZM1559.29 128.576L1495.99 128.576L1495.99 161.191L1475.4 161.191L1475.4 128.576L1412.89 128.576L1412.89 109.996L1475.73 109.996L1475.73 91.9906L1496.31 91.9906L1496.31 109.996L1559.61 109.996L1559.29 128.576ZM1489 59.5165C1482.07 61.6624 1475.21 63.6172 1468.41 65.2495C1466.85 59.859 1464.56 54.7002 1461.62 49.9243C1470.89 47.6169 1480.02 44.836 1489 41.5816L1489 11.3845L1508.42 11.3845L1508.42 34.0752C1520.01 29.42 1531.09 23.5661 1541.49 16.6037L1555.28 31.7981C1540.56 40.7654 1524.85 47.9897 1508.48 53.3198L1508.48 65.0582C1508.48 71.1237 1509.64 71.97 1516.12 71.97L1534.89 71.97C1540.39 71.97 1541.36 69.3 1542.33 55.4659C1547.53 58.7406 1553.21 61.1586 1559.16 62.6399C1557.22 82.207 1551.91 88.4036 1536.7 88.4036L1513.33 88.4036C1493.92 88.4036 1489.19 83.0534 1489.19 65.2495L1489 59.5165Z"   fill="#005DA2" ></path><path d="M1616.59 11.7034L1636.72 11.7034L1636.72 159.424L1616.59 159.424L1616.59 125.842C1604.16 131.383 1591.67 136.602 1581.11 140.965L1572.7 121.398C1583.7 118.013 1600.08 112.27 1616.59 106.274L1616.59 67.1402L1578.2 67.1402L1578.2 47.5731L1616.59 47.5731L1616.59 11.7034ZM1700.21 138.688C1706.69 138.688 1707.53 132.159 1708.63 106.073C1714.19 110.174 1720.44 113.217 1727.08 115.071C1725.13 146.245 1720.28 157.993 1702.16 157.993L1680.92 157.993C1662.48 157.993 1657.1 151.464 1657.1 128.643L1657.1 11.7034L1677.04 11.7034L1677.04 60.8126C1688.63 53.286 1699.73 45.0139 1710.25 36.0262L1724.68 52.9837C1709.42 63.4928 1693.51 72.9842 1677.04 81.4277L1677.04 128.572C1677.04 137.711 1677.88 138.688 1683.84 138.688L1700.21 138.688Z"   fill="#005DA2" ></path><path d="M1793.68 21.6776C1789.47 35.3805 1784.1 51.6832 1779.57 64.3988C1787.25 73.9304 1791.43 85.8399 1791.42 98.1223C1791.42 108.682 1789.28 115.725 1784.1 119.644C1781.38 121.619 1778.19 122.858 1774.85 123.231C1771.41 123.644 1767.94 123.755 1764.49 123.553C1764.33 117.76 1762.89 112.087 1760.28 106.918C1762.61 107.08 1764.94 107.08 1767.27 106.918C1768.82 106.999 1770.35 106.536 1771.61 105.619C1773.88 102.908 1774.89 99.3515 1774.39 95.8351C1774.3 84.8525 1770.33 74.2629 1763.19 65.9604C1766.43 56.1871 1769.67 42.9474 1772.26 32.1865L1759.31 32.1865L1759.31 160.723L1742.48 160.723L1742.48 15.1586L1778.28 15.1586L1781.06 14.3121L1793.68 21.6776ZM1869.67 142.597C1872.07 142.597 1872.91 139.856 1873.23 123.03C1877.94 126.546 1883.25 129.156 1888.9 130.727C1887.47 153.035 1882.94 159.292 1871.61 159.292L1860.42 159.292C1846.18 159.292 1842.94 153.68 1842.94 137.579L1842.94 103.926L1832.19 103.926C1829.8 131.382 1822.36 150.295 1790.9 161.247C1788.35 155.383 1784.73 150.043 1780.22 145.529C1806.11 137.579 1811.8 124.339 1813.75 103.926L1794.33 103.926L1794.33 86.6359L1886.63 86.6359L1886.63 103.926L1861.19 103.926L1861.19 137.246C1861.19 141.811 1861.52 142.466 1863.78 142.466L1869.67 142.597ZM1806.43 60.0258L1793.81 60.0258L1793.81 27.8742L1831.42 27.8742C1829.62 22.5643 1827.45 17.3752 1824.94 12.3575L1843.26 7.13818C1847.09 13.6874 1850.19 20.6498 1852.52 27.8742L1886.05 27.8742L1886.05 60.0258L1873.1 60.0258L1873.1 74.5753L1806.43 74.5753L1806.43 60.0258ZM1811.68 57.7488L1867.41 57.7488L1867.41 44.7006L1811.68 44.7006L1811.68 57.7488Z"   fill="#005DA2" ></path><rect x="548.9578857421875" y="6.9423828125" width="2.7833251953125" height="154.7630615234375"   fill="#595757" ></rect></svg>