<svg xmlns="http://www.w3.org/2000/svg" xmlns:xlink="http://www.w3.org/1999/xlink" width="2447" height="556" viewBox="0 0 2447 556" fill="none"><path fill="#FFFFFF" d="M0 556L2447 556L2447 0L0 0L0 556Z"/><path d="M638 326.94L652.218 326.94L652.218 281.94L638 281.94L638 326.94ZM673.022 326.94L687.536 326.94L687.536 281.94L673.344 281.94L673.344 308.878L655.497 286.191L655.497 304.067L673.022 326.94ZM717.881 297.209C720.264 297.209 722.038 297.964 723.203 299.474C724.278 300.881 724.816 302.795 724.816 305.216L724.816 318.933C724.816 321.395 724.296 323.298 723.257 324.643C722.092 326.174 720.3 326.94 717.881 326.94L699.712 326.94C697.329 326.94 695.581 326.195 694.47 324.705C693.341 323.277 692.777 321.353 692.777 318.933L692.777 305.216C692.777 302.754 693.288 300.84 694.309 299.474C695.492 297.964 697.293 297.209 699.712 297.209L717.881 297.209ZM702.023 305.216L702.023 318.933L715.57 318.933L715.57 305.216L702.023 305.216ZM730.299 297.954L730.299 305.96L751.774 305.96L751.774 318.933L738.228 318.933L738.228 316.264L749.463 316.264L749.463 308.629L737.179 308.629C734.384 308.629 732.332 309.436 731.024 311.05C729.663 312.705 728.982 314.908 728.982 317.66C728.982 320.453 729.6 322.657 730.836 324.271C732.234 326.05 734.348 326.94 737.179 326.94L761.02 326.94L761.02 305.96C761.02 303.498 760.5 301.594 759.461 300.25C758.296 298.719 756.505 297.954 754.086 297.954L730.299 297.954ZM774.513 297.581L788.758 297.581C790.855 297.581 792.476 298.47 793.623 300.25C794.608 301.822 795.101 303.85 795.101 306.333L795.101 326.94L785.855 326.94L785.855 306.333L774.513 306.333L774.513 326.94L765.267 326.94L765.267 282.312L774.513 282.312L774.513 297.581Z" fill="#005DA2"/><g mask="url(#mask-OBC-EBhajvfRTfuHsDs1h)"><path d="M59.3108 332.852L66.498 332.852L66.498 305.91L59.3108 305.91L59.3108 332.852ZM77.014 332.852L84.3507 332.852L84.3507 305.91L77.177 305.91L77.177 322.038L68.1556 308.456L68.1556 319.158L77.014 332.852ZM108.861 305.91L108.861 313.454L87.6658 313.454C87.6658 311.039 88.1006 309.168 88.9701 307.842C89.8215 306.554 91.0941 305.91 92.7879 305.91L108.861 305.91ZM87.6658 315.721L87.6658 325.308C87.6658 327.389 88.1775 329.167 89.201 330.641C90.1973 332.115 91.5198 332.852 93.1683 332.852L108.861 332.852L108.861 325.308L94.8394 325.308L94.8394 315.721L87.6658 315.721ZM137.053 305.91L129.879 305.91L124.703 313.454L119.526 305.91L112.352 305.91L112.352 332.852L119.526 332.852L119.526 316.52L124.703 324.212L129.879 316.52L129.879 332.852L137.053 332.852L137.053 305.91ZM140.707 305.91L162.405 305.91L162.405 313.454L140.707 313.454L140.707 305.91ZM140.707 315.721L157.066 315.721L157.066 323.023L147.881 323.023L147.881 325.308L162.405 325.308L162.405 332.852L140.707 332.852L140.707 315.721ZM179.497 305.91L186.671 305.91L186.671 332.852L179.497 332.852L179.497 305.91ZM190.804 315.867L200.911 315.867C201.831 315.867 202.624 316.347 203.292 317.308C203.949 318.268 204.277 319.373 204.277 320.623C204.277 321.88 204.066 322.895 203.644 323.668C203.21 324.449 202.525 325.039 201.588 325.437L194.419 328.53L203.961 328.53L203.961 332.852L190.804 332.852L190.804 325.894L199.96 321.595L199.96 320.623L190.804 320.623L190.804 315.867ZM233.041 313.454C233.041 311.373 232.548 309.62 231.56 308.196C230.528 306.672 229.183 305.91 227.525 305.91L213.68 305.91C212.041 305.91 210.712 306.647 209.693 308.121C208.674 309.595 208.164 311.373 208.164 313.454L208.164 325.308C208.164 327.773 208.658 329.644 209.645 330.92C210.605 332.208 211.95 332.852 213.68 332.852L227.525 332.852C229.237 332.852 230.582 332.208 231.56 330.92C232.548 329.619 233.041 327.749 233.041 325.308L233.041 313.454ZM215.338 313.454L225.868 313.454L225.868 325.308L215.338 325.308L215.338 313.454Z" fill="#595757"/></g><g mask="url(#mask-OBC-EBhajvfRTfuHsDs1h)"><rect x="47.5155029296875" y="219.3809814453125" width="200" height="200" stroke="rgba(0, 0, 0, 1.00)" stroke-width="1"/></g><path d="M47.5155 125.816L59.564 125.816L59.564 80.652L47.5155 80.652L47.5155 125.816ZM77.1926 125.816L89.4916 125.816L89.4916 80.652L77.4659 80.652L77.4659 107.688L62.3427 84.9193L62.3427 102.86L77.1926 125.816ZM130.579 80.652L130.579 93.298L95.0489 93.298C95.0489 89.2488 95.7777 86.1133 97.2354 83.8914C98.6627 81.7318 100.796 80.652 103.635 80.652L130.579 80.652ZM95.0489 97.0981L95.0489 113.17C95.0489 116.659 95.9068 119.639 97.6226 122.11C99.2929 124.581 101.51 125.816 104.273 125.816L130.579 125.816L130.579 113.17L107.075 113.17L107.075 97.0981L95.0489 97.0981ZM177.84 80.652L165.814 80.652L157.135 93.298L148.458 80.652L136.433 80.652L136.433 125.816L148.458 125.816L148.458 98.4374L157.135 111.333L165.814 98.4374L165.814 125.816L177.84 125.816L177.84 80.652ZM183.967 80.652L220.34 80.652L220.34 93.298L183.967 93.298L183.967 80.652ZM183.967 97.0981L211.389 97.0981L211.389 109.339L195.993 109.339L195.993 113.17L220.34 113.17L220.34 125.816L183.967 125.816L183.967 97.0981ZM248.993 80.652L261.017 80.652L261.017 125.816L248.993 125.816L248.993 80.652ZM267.947 97.3432L284.891 97.3432C286.432 97.3432 287.762 98.1483 288.882 99.7585C289.982 101.369 290.533 103.221 290.533 105.316C290.533 107.423 290.178 109.125 289.469 110.421C288.742 111.73 287.594 112.719 286.023 113.386L274.007 118.57L290.003 118.57L290.003 125.816L267.947 125.816L267.947 114.152L283.296 106.946L283.296 105.316L267.947 105.316L267.947 97.3432ZM338.753 93.298C338.753 89.8094 337.924 86.8712 336.27 84.4832C334.539 81.929 332.284 80.652 329.505 80.652L306.296 80.652C303.548 80.652 301.32 81.8875 299.611 84.3586C297.904 86.8297 297.049 89.8094 297.049 93.298L297.049 113.17C297.049 117.303 297.876 120.438 299.533 122.577C301.142 124.736 303.396 125.816 306.296 125.816L329.505 125.816C332.375 125.816 334.629 124.736 336.27 122.577C337.924 120.396 338.753 117.261 338.753 113.17L338.753 93.298ZM309.076 93.298L326.727 93.298L326.727 113.17L309.076 113.17L309.076 93.298Z" fill="#595757"/><path d="M685.784 352.94L671.326 352.94L660.892 365.54L650.459 352.94L636 352.94L636 397.94L650.459 397.94L650.459 370.66L660.892 383.509L671.326 370.66L671.326 397.94L685.784 397.94L685.784 352.94ZM717.44 368.209C719.868 368.209 721.675 368.964 722.862 370.474C723.957 371.881 724.505 373.795 724.505 376.216L724.505 389.933C724.505 392.395 723.976 394.298 722.917 395.643C721.73 397.174 719.905 397.94 717.44 397.94L698.929 397.94C696.501 397.94 694.721 397.195 693.589 395.705C692.439 394.277 691.864 392.353 691.864 389.933L691.864 376.216C691.864 373.754 692.384 371.84 693.424 370.474C694.629 368.964 696.464 368.209 698.929 368.209L717.44 368.209ZM701.284 376.216L701.284 389.933L715.085 389.933L715.085 376.216L701.284 376.216ZM738.061 397.94L738.061 376.96L749.507 376.96L749.507 397.94L758.927 397.94L758.927 376.96C758.927 374.498 758.398 372.594 757.339 371.25C756.152 369.719 754.327 368.954 751.862 368.954L728.64 368.954L728.64 397.94L738.061 397.94ZM763.007 368.954L772.428 368.954L772.428 397.94L763.007 397.94L763.007 368.954ZM763.007 366.285L772.428 366.285L772.428 358.278L763.007 358.278L763.007 366.285ZM779 353.312L779 368.954L776.59 368.954L776.59 376.96L779 376.96L779 389.933C779 392.395 779.52 394.298 780.561 395.643C781.766 397.174 783.6 397.94 786.065 397.94L788.42 397.94L799.702 397.94L799.702 389.933L788.42 389.933L788.42 376.96L799.702 376.96L799.702 368.954L788.42 368.954L788.42 353.312L779 353.312ZM829.304 368.209C831.732 368.209 833.539 368.964 834.726 370.474C835.821 371.881 836.369 373.795 836.369 376.216L836.369 389.933C836.369 392.395 835.84 394.298 834.781 395.643C833.594 397.174 831.769 397.94 829.304 397.94L810.793 397.94C808.365 397.94 806.585 397.195 805.453 395.705C804.303 394.277 803.728 392.353 803.728 389.933L803.728 376.216C803.728 373.754 804.248 371.84 805.289 370.474C806.494 368.964 808.328 368.209 810.793 368.209L829.304 368.209ZM813.148 376.216L813.148 389.933L826.949 389.933L826.949 376.216L813.148 376.216ZM840.395 368.581L840.395 397.94L849.815 397.94L849.815 376.588L854.58 376.588L854.58 379.257L864 379.257L864 376.588C864 374.126 863.471 372.222 862.412 370.878C861.225 369.346 859.4 368.581 856.935 368.581L840.395 368.581Z" fill="#005DA2"/><path d="M321 398.104L333.048 398.104L333.048 352.94L321 352.94L321 398.104ZM350.677 398.104L362.976 398.104L362.976 352.94L350.95 352.94L350.95 379.976L335.827 357.207L335.827 375.148L350.677 398.104ZM404.064 352.94L404.064 365.586L368.533 365.586C368.533 361.536 369.262 358.401 370.72 356.179C372.147 354.019 374.281 352.94 377.12 352.94L404.064 352.94ZM368.533 369.386L368.533 385.458C368.533 388.946 369.391 391.926 371.107 394.398C372.777 396.868 374.994 398.104 377.758 398.104L404.064 398.104L404.064 385.458L380.559 385.458L380.559 369.386L368.533 369.386ZM451.324 352.94L439.298 352.94L430.621 365.586L421.943 352.94L409.917 352.94L409.917 398.104L421.943 398.104L421.943 370.725L430.621 383.62L439.298 370.725L439.298 398.104L451.324 398.104L451.324 352.94ZM457.451 352.94L493.824 352.94L493.824 365.586L457.451 365.586L457.451 352.94ZM457.451 369.386L484.873 369.386L484.873 381.627L469.477 381.627L469.477 385.458L493.824 385.458L493.824 398.104L457.451 398.104L457.451 369.386Z" fill="#595757"/><path d="M522.476 398.104L534.502 398.104L534.502 352.94L522.476 352.94L522.476 398.104ZM541.431 377.603L556.781 377.603L556.781 379.233L541.431 386.44L541.431 398.104L563.486 398.104L563.486 390.858L547.491 390.858L559.509 385.674C561.079 385.006 562.228 384.018 562.955 382.709C563.664 381.413 564.018 379.711 564.018 377.603C564.018 375.509 563.467 373.656 562.366 372.046C561.246 370.436 559.916 369.631 558.375 369.631L541.431 369.631L541.431 377.603ZM612.703 365.586C612.703 362.097 611.875 359.159 610.22 356.771C608.49 354.217 606.235 352.94 603.456 352.94L580.247 352.94C577.499 352.94 575.271 354.175 573.562 356.646C571.854 359.117 571 362.097 571 365.586L571 385.458C571 389.59 571.828 392.725 573.483 394.865C575.092 397.024 577.347 398.104 580.247 398.104L603.456 398.104C606.326 398.104 608.58 397.024 610.22 394.865C611.875 392.684 612.703 389.548 612.703 385.458L612.703 365.586ZM583.026 365.586L600.677 365.586L600.677 385.458L583.026 385.458L583.026 365.586Z" fill="#005DA2"/><path d="M321 327.104L333.048 327.104L333.048 281.94L321 281.94L321 327.104ZM350.677 327.104L362.976 327.104L362.976 281.94L350.95 281.94L350.95 308.976L335.827 286.207L335.827 304.148L350.677 327.104ZM404.064 281.94L404.064 294.586L368.533 294.586C368.533 290.536 369.262 287.401 370.72 285.179C372.147 283.019 374.281 281.94 377.12 281.94L404.064 281.94ZM368.533 298.386L368.533 314.458C368.533 317.946 369.391 320.926 371.107 323.398C372.777 325.868 374.994 327.104 377.758 327.104L404.064 327.104L404.064 314.458L380.559 314.458L380.559 298.386L368.533 298.386ZM451.324 281.94L439.298 281.94L430.621 294.586L421.943 281.94L409.917 281.94L409.917 327.104L421.943 327.104L421.943 299.725L430.621 312.62L439.298 299.725L439.298 327.104L451.324 327.104L451.324 281.94ZM457.451 281.94L493.824 281.94L493.824 294.586L457.451 294.586L457.451 281.94ZM457.451 298.386L484.873 298.386L484.873 310.627L469.477 310.627L469.477 314.458L493.824 314.458L493.824 327.104L457.451 327.104L457.451 298.386ZM522.476 281.94L534.502 281.94L534.502 327.104L522.476 327.104L522.476 281.94ZM541.431 298.631L558.375 298.631C559.916 298.631 561.246 299.436 562.366 301.046C563.467 302.656 564.018 304.509 564.018 306.603C564.018 308.711 563.664 310.413 562.955 311.709C562.228 313.018 561.079 314.006 559.509 314.674L547.491 319.858L563.486 319.858L563.486 327.104L541.431 327.104L541.431 315.44L556.781 308.233L556.781 306.603L541.431 306.603L541.431 298.631ZM612.236 294.586C612.236 291.097 611.409 288.159 609.754 285.771C608.023 283.217 605.768 281.94 602.989 281.94L579.781 281.94C577.032 281.94 574.804 283.175 573.096 285.646C571.387 288.117 570.533 291.097 570.533 294.586L570.533 314.458C570.533 318.59 571.361 321.725 573.016 323.865C574.625 326.024 576.88 327.104 579.781 327.104L602.989 327.104C605.859 327.104 608.114 326.024 609.754 323.865C611.409 321.684 612.236 318.548 612.236 314.458L612.236 294.586ZM582.559 294.586L600.211 294.586L600.211 314.458L582.559 314.458L582.559 294.586Z" fill="#595757"/><path d="M638 241.94L652.218 241.94L652.218 196.94L638 196.94L638 241.94ZM673.022 241.94L687.536 241.94L687.536 196.94L673.344 196.94L673.344 223.878L655.497 201.191L655.497 219.067L673.022 241.94ZM717.881 212.209C720.264 212.209 722.038 212.964 723.203 214.474C724.278 215.881 724.816 217.795 724.816 220.216L724.816 233.933C724.816 236.395 724.296 238.298 723.257 239.643C722.092 241.174 720.3 241.94 717.881 241.94L699.712 241.94C697.329 241.94 695.581 241.195 694.47 239.705C693.341 238.277 692.777 236.353 692.777 233.933L692.777 220.216C692.777 217.754 693.288 215.84 694.309 214.474C695.492 212.964 697.293 212.209 699.712 212.209L717.881 212.209ZM702.023 220.216L702.023 233.933L715.57 233.933L715.57 220.216L702.023 220.216ZM730.299 212.954L730.299 220.96L751.774 220.96L751.774 233.933L738.228 233.933L738.228 231.264L749.463 231.264L749.463 223.629L737.179 223.629C734.384 223.629 732.332 224.436 731.024 226.05C729.663 227.705 728.982 229.908 728.982 232.66C728.982 235.453 729.6 237.657 730.836 239.271C732.234 241.05 734.348 241.94 737.179 241.94L761.02 241.94L761.02 220.96C761.02 218.498 760.5 216.594 759.461 215.25C758.296 213.719 756.505 212.954 754.086 212.954L730.299 212.954ZM774.513 212.581L788.758 212.581C790.855 212.581 792.476 213.47 793.623 215.25C794.608 216.822 795.101 218.85 795.101 221.333L795.101 241.94L785.855 241.94L785.855 221.333L774.513 221.333L774.513 241.94L765.267 241.94L765.267 197.312L774.513 197.312L774.513 212.581Z" fill="#005DA2"/><path d="M321 242.104L333.048 242.104L333.048 196.94L321 196.94L321 242.104ZM350.677 242.104L362.976 242.104L362.976 196.94L350.95 196.94L350.95 223.976L335.827 201.207L335.827 219.148L350.677 242.104ZM404.064 196.94L404.064 209.586L368.533 209.586C368.533 205.536 369.262 202.401 370.72 200.179C372.147 198.019 374.281 196.94 377.12 196.94L404.064 196.94ZM368.533 213.386L368.533 229.458C368.533 232.946 369.391 235.926 371.107 238.398C372.777 240.868 374.994 242.104 377.758 242.104L404.064 242.104L404.064 229.458L380.559 229.458L380.559 213.386L368.533 213.386ZM451.324 196.94L439.298 196.94L430.621 209.586L421.943 196.94L409.917 196.94L409.917 242.104L421.943 242.104L421.943 214.725L430.621 227.62L439.298 214.725L439.298 242.104L451.324 242.104L451.324 196.94ZM457.451 196.94L493.824 196.94L493.824 209.586L457.451 209.586L457.451 196.94ZM457.451 213.386L484.873 213.386L484.873 225.627L469.477 225.627L469.477 229.458L493.824 229.458L493.824 242.104L457.451 242.104L457.451 213.386ZM522.476 196.94L534.502 196.94L534.502 242.104L522.476 242.104L522.476 196.94ZM541.431 213.631L558.375 213.631C559.916 213.631 561.246 214.436 562.366 216.046C563.467 217.656 564.018 219.509 564.018 221.603C564.018 223.711 563.664 225.413 562.955 226.709C562.228 228.018 561.079 229.006 559.509 229.674L547.491 234.858L563.486 234.858L563.486 242.104L541.431 242.104L541.431 230.44L556.781 223.233L556.781 221.603L541.431 221.603L541.431 213.631ZM612.236 209.586C612.236 206.097 611.409 203.159 609.754 200.771C608.023 198.217 605.768 196.94 602.989 196.94L579.781 196.94C577.032 196.94 574.804 198.175 573.096 200.646C571.387 203.117 570.533 206.097 570.533 209.586L570.533 229.458C570.533 233.59 571.361 236.726 573.016 238.865C574.625 241.024 576.88 242.104 579.781 242.104L602.989 242.104C605.859 242.104 608.114 241.024 609.754 238.865C611.409 236.684 612.236 233.548 612.236 229.458L612.236 209.586ZM582.559 209.586L600.211 209.586L600.211 229.458L582.559 229.458L582.559 209.586Z" fill="#000000"/><text transform="translate(1084, 341)"><tspan x="0" y="67.96875" font-size="96" line-height="0" fill="#000000" font-family="FontMonger" letter-spacing="0">NCME</tspan><tspan x="367.875" y="67.96875" font-size="96" line-height="0" fill="#000000" font-family="Roboto-Regular" letter-spacing="0"> </tspan><tspan x="391.640625" y="67.96875" font-size="96" line-height="0" fill="#000000" font-family="FontMonger" letter-spacing="0">I2O</tspan></text><defs><mask id="mask-OBC-EBhajvfRTfuHsDs1h" style="mask-type:alpha" maskUnits="userSpaceOnUse"><rect x="47.0155029296875" y="218.8809814453125" width="201" height="201" fill="#000000"/><rect x="47.0155029296875" y="218.8809814453125" width="201" height="201" fill="#000000"/></mask></defs></svg>